<?xml version="1.0" encoding="UTF-8" standalone="no"?>
<!-- Created with Inkscape (http://www.inkscape.org/) -->

<svg
   version="1.1"
   id="svg2"
   width="1080"
   height="1080"
   viewBox="0 0 1080 1080"
   sodipodi:docname="RootAsRolev2.svg"
   inkscape:export-filename="/home/ebilloir/Téléchargements/RootAsRolev2.png"
   inkscape:export-xdpi="96"
   inkscape:export-ydpi="96"
   inkscape:version="1.1.2 (0a00cf5339, 2022-02-04)"
   xmlns:inkscape="http://www.inkscape.org/namespaces/inkscape"
   xmlns:sodipodi="http://sodipodi.sourceforge.net/DTD/sodipodi-0.dtd"
   xmlns:xlink="http://www.w3.org/1999/xlink"
   xmlns="http://www.w3.org/2000/svg"
   xmlns:svg="http://www.w3.org/2000/svg">
  <defs
     id="defs6" />
  <sodipodi:namedview
     id="namedview4"
     pagecolor="#ffffff"
     bordercolor="#666666"
     borderopacity="1.0"
     inkscape:pageshadow="2"
     inkscape:pageopacity="0.0"
     inkscape:pagecheckerboard="0"
     showgrid="false"
     inkscape:zoom="1.3314815"
     inkscape:cx="468.27538"
     inkscape:cy="481.79415"
     inkscape:window-width="1920"
     inkscape:window-height="1066"
     inkscape:window-x="0"
     inkscape:window-y="0"
     inkscape:window-maximized="1"
     inkscape:current-layer="svg2" />
  <image
     width="1080"
     height="1080"
     preserveAspectRatio="none"
     xlink:href="My%20new%20design%20(1).png"
     id="image10"
     style="display:none"
     mask="none" />
  <path
     id="path976"
     style="fill:#aa8800"
     d="M 559.1543 53.015625 C 550.77549 52.995745 546.31998 55.864797 542.48633 63.75 C 541.61728 65.5375 540.58984 67.00027 540.20312 67 C 539.81643 66.99973 537.61752 64.812678 535.31641 62.140625 C 527.63026 53.215434 517.15096 50.725983 505.54492 55.068359 C 499.28375 57.410963 494.90513 61.326473 491.79102 67.365234 C 489.94415 70.946629 489.56933 73.907825 488.98633 89.5 C 488.3991 105.20517 488.03532 108.04086 486.13672 111.74805 C 482.33436 119.17251 477.19151 121.40858 451 127.01758 C 435.76411 130.2804 431.53148 130.15057 425.85938 126.24805 C 419.93707 122.17341 418.04031 118.85154 413.62109 104.81836 C 408.75607 89.369517 405.16619 86.373626 392.47656 87.181641 C 386.51605 87.561177 383.91366 88.606683 363.28906 98.90625 C 329.98489 115.53778 327 117.87703 327 127.33203 C 327 131.18371 327.43735 132.09753 330.35156 134.32031 C 333.44338 136.67856 336.11673 141.20987 340.48242 151.5 C 343.172 157.83945 345.25969 161.38152 347.26367 163.00781 C 348.34684 163.88682 348.86926 165.17808 348.51562 166.09961 C 348.18179 166.96956 342.69716 171.68961 336.32812 176.58984 C 329.95907 181.49008 319.75616 189.4375 313.6543 194.25 C 306.84604 199.61964 301.65287 203 300.21094 203 C 297.0934 203 291.52203 199.06124 277.39258 186.86523 C 260.90431 172.63316 258.11176 171 250.26367 171 L 243.91992 171 L 232.21094 182.21094 C 212.8717 200.72736 204.20708 209.69901 202.52734 212.94727 C 198.07959 221.54826 198.90352 231.946 204.73047 240.75977 C 206.64269 243.65217 214.91454 252.46649 223.11328 260.34766 L 238.01953 274.67578 L 234.99219 282.02148 C 233.32644 286.06096 229.84352 293.22164 227.25391 297.93359 C 224.66429 302.64553 221.41105 308.60598 220.02344 311.17969 C 215.61593 319.35464 213.64298 321.00019 208.25586 321 C 203.52026 320.99983 191.21324 318.9104 185.5 317.13672 C 183.85 316.62448 179.90186 314.99714 176.72656 313.51953 C 167.30891 309.13707 160.53256 311.70391 156.98242 321 C 156.24727 322.925 154.55176 326.975 153.21484 330 C 149.77242 337.78903 148.71455 340.34018 144.70703 350.5 C 128.83683 390.7339 128.3737 392.3737 131.88477 395.88477 C 134.64497 398.64497 135.28344 398.56843 139.34766 395 C 141.2269 393.35 143.42809 392 144.24023 392 C 146.49205 392 175.17488 406.57209 177.86328 409.08203 C 180.55711 411.59704 180.5259 412.63685 177.04883 436.5 C 174.36943 454.88872 173 470.92974 173 483.92773 C 173 500.8321 172.02545 501.92336 156.89844 501.96875 C 151.06802 501.98624 144.76802 502.52631 142.89844 503.16992 C 137.21121 505.12778 132.01207 509.12327 129.44141 513.50977 L 127 517.67578 L 127 549.37695 C 127 584.33922 127.10521 585.00132 133.6582 591.17773 C 139.69829 596.87073 153.03384 601 165.38086 601 C 167.94524 601 168.93766 601.56678 169.83984 603.54688 C 170.47813 604.94775 171 606.66707 171 607.36719 C 171 609.35569 177.72303 616.71589 181.06055 618.38086 C 182.71493 619.20617 187.35149 620.43332 191.36328 621.10742 C 197.83997 622.1957 199.37647 622.12265 205.07812 620.46484 C 210.08311 619.00959 214.47764 618.62827 225 618.73242 C 232.425 618.80592 288.675 619.23413 350 619.68359 L 461.5 620.5 L 461.7793 633.88867 C 462.02327 645.55473 461.83033 647.53603 460.2793 649.29297 C 458.65051 651.138 449.33828 655.86863 425.65039 666.88477 C 420.78327 669.14823 416.63378 671 416.42969 671 C 416.2256 671 413.68309 672.08101 410.7793 673.40234 C 407.8755 674.72367 402.8 676.93284 399.5 678.31055 C 390.30896 682.14769 376.84416 687.91979 373.5 689.45703 C 360.71741 695.33293 331.46621 705.95811 325.25195 706.98242 C 321.02386 707.67935 320.99058 707.66084 317.92578 702.88477 C 313.13549 695.41975 303.05558 686.63182 294.34766 682.32812 C 287.55243 678.96974 285.74033 678.50414 279.55273 678.52734 C 270.68276 678.56057 263.46192 680.98536 256.97461 686.11328 C 249.89129 691.71232 247.56452 695.83491 244.33398 708.5 C 243.9131 710.15 243.55396 729.31738 243.53516 751.09375 L 243.5 790.6875 L 250.72461 784.19727 C 254.69849 780.62788 258.52349 776.9262 259.22461 775.9707 C 259.92573 775.01519 263.00242 771.14366 266.06055 767.36719 C 269.11868 763.59072 273.08301 757.92236 274.87109 754.77148 C 276.65917 751.6206 278.49358 748.8136 278.94727 748.5332 C 279.40096 748.2528 284.6038 750.49922 290.50977 753.52734 C 305.89296 761.41466 314.40515 764.04575 336.35938 767.69336 L 341.21875 768.5 L 332.85938 774.08984 C 322.5048 781.01365 316.18901 785 315.57422 785 C 314.27008 785 294.11481 798.34465 284.16992 805.79297 C 266.99764 818.65432 260.43083 827.50729 257.91016 841.1875 C 256.90653 846.63439 256.98645 850.17041 258.38867 862.12109 C 259.31663 870.02989 260.53688 880.55 261.09961 885.5 C 262.63974 899.04759 264.46665 904.46759 269.24219 909.64844 C 274.43484 915.28179 279.77917 918.4107 287.64453 920.42578 C 300.27093 923.6606 307.99716 921.908 311.92578 914.91797 C 313.97642 911.26935 314.13282 909.99076 313.6543 900.70508 C 313.36509 895.09275 312.81899 888.76158 312.44141 886.63672 C 311.61681 881.99612 313.30578 876.10403 317.06836 870.5 C 321.0258 864.60572 334.2128 852.70242 351 839.87109 C 361.68814 831.70159 408.9389 799.60172 409.47461 800.14648 C 409.66533 800.34042 408.8052 803.65 407.5625 807.5 C 405.3338 814.40468 404.39337 817.67289 401.8125 827.5 C 400.95383 830.76954 400.52225 838.55661 400.56445 850 C 400.61919 864.8415 400.97689 868.84556 402.91602 876.35742 C 406.74903 891.2059 411.11249 900.60206 421.19531 915.71094 C 426.41098 923.52652 440.72099 938.54058 445.83008 941.55859 C 449.78181 943.89294 449.81831 945.44141 446 948.6543 C 444.35 950.04269 443 951.59793 443 952.11133 C 443 953.76364 451.20971 962.03372 462.5 971.75586 C 476.38005 983.70806 479.71913 985.99379 492.8418 992.5293 C 504.17718 998.17468 510.50439 1000.3136 522.21484 1002.4531 C 555.14263 1008.4691 593.59356 994.22173 622.93359 965.13477 C 635.18656 952.98748 640.66732 946.572 646.84961 937.13867 C 651.10019 930.65287 659.08226 915.34369 660.24219 911.45312 C 660.56251 910.37874 661.80984 906.8 663.01367 903.5 C 669.34763 886.1369 672.42883 855.3848 668.60547 847.68555 C 666.49408 843.43374 658.58882 836.83677 656.54492 837.62109 C 655.67451 837.9551 654.98902 841.0809 654.52734 846.81445 C 653.08368 864.74309 650.03904 881.29633 645.48242 895.99219 C 638.58842 918.22646 616.87409 947.31985 595 963.63086 C 580.44468 974.48442 560.37425 983.82567 547.09766 985.92578 C 536.26558 987.63921 520.05043 984.50246 505.22461 977.82617 C 501.77333 976.27201 498.74929 975 498.50391 975 C 498.25852 975 494.55764 972.97133 490.2793 970.49219 C 486.00096 968.01305 481.825 965.60112 481 965.13281 C 478.10412 963.48899 480.56244 962.50155 487 962.72266 C 490.575 962.84545 498.675 962.67401 505 962.3418 C 522.12258 961.44246 515.73331 960.15271 493.75 960.07031 C 477.78124 960.01045 475 959.7775 475 958.5 C 475 957.40889 476.15851 956.98718 479.25 956.95508 C 481.5875 956.93079 495.875 956.50199 511 956.00195 C 533.48866 955.25845 539.95784 954.7156 546.5 953.01953 C 562.21466 948.94549 569.93395 945.54299 584.17383 936.41602 C 603.20047 924.221 621.01557 900.06089 625.9043 879.82227 C 629.74909 863.90545 627.96308 838.66417 621.97852 824.32422 C 614.24816 805.80107 602.53492 793.90703 578.5 780.17578 C 573.55 777.34783 568.8544 774.60931 568.06445 774.0918 C 566.90293 773.33089 567.51189 772.11641 571.25391 767.73633 C 585.33421 751.25517 589.88958 739.60517 588.54883 723.5 C 587.76286 714.05895 585.73632 704.59765 584.71875 705.61523 C 584.32333 706.01064 584 709.61092 584 713.61719 C 584 731.22772 579.14532 742.08558 565.61328 754.74414 C 554.53015 765.11186 551.3038 765.40308 559.54102 755.29102 C 570.59826 741.7171 573.09661 734.52776 573.7168 714.5 C 574.21918 698.27654 572.54243 686.04619 569.4043 683.04688 C 567.93403 681.64165 567.83337 681.68356 568.31055 683.5 C 570.56551 692.0836 569.67107 707.93253 566.33398 718.5 C 560.3655 737.40022 553.87818 746.31337 525.94727 774 C 500.47863 799.24588 495.39467 807.77094 492.80664 829.56055 C 492.12432 835.30528 491.10173 839.99242 490.5332 839.98242 C 489.96493 839.97279 487.07609 837.70933 484.11328 834.95312 L 478.72656 829.94336 L 479.28516 824.52734 C 480.05687 817.05017 486.48333 804.09114 495.91016 791 C 507.02039 775.57111 507.26735 772.59735 496.4707 784.25 C 474.62125 807.83176 463.33989 836.2931 467.99609 856.0918 C 470.57081 867.03982 474.02224 871 480.98828 871 C 483.52457 871 486.02828 871.38001 486.55078 871.84375 C 487.07328 872.3075 490.00722 873.44906 493.07227 874.38086 C 501.41432 876.91689 505.42159 880.10042 508.61523 886.73047 C 511.0732 891.83327 511.37547 893.52854 511.23047 901.39258 C 510.96109 916.00218 506.12231 926.67613 496.92383 932.95312 C 483.58228 942.05733 470.38979 938.02581 450.32227 918.71289 C 428.75001 897.95183 416.484 869.18083 418.29883 843.5957 C 419.85039 821.72215 426.60612 802.63449 438.32227 787.01758 C 444.51926 778.75737 461.16928 761.97385 463.06445 762.07812 C 464.08407 762.13423 464.13833 762.30366 463.25 762.66211 C 462.5625 762.93952 462 763.64937 462 764.24023 C 462 764.83109 460.2497 767.60739 458.10938 770.4082 C 448.14785 783.44361 436.72245 804.01597 432.56055 816.41406 C 426.55117 834.31569 427.5684 853.56331 435.08203 864.11523 C 438.11563 868.37553 438.42629 867.13275 435.89062 860.88086 C 434.10067 856.46758 433.69976 853.43357 433.66016 844 C 433.60106 829.924 436.13135 820.76495 445.11914 802.5 C 454.24451 783.95547 464.98655 770.92619 489.94922 748.12891 C 495.14621 743.38273 501.22121 737.7524 503.44922 735.61719 C 505.67723 733.48197 509.4125 730.16658 511.75 728.24805 C 518.74223 722.50907 517.25468 722.103 506.74609 726.88477 C 504.41036 727.94761 496.65 731.12216 489.5 733.93945 C 457.66234 746.48431 444.2613 753.52873 410 775.73047 C 395.975 784.81884 382.7 793.53752 380.5 795.10352 C 378.3 796.66952 373.125 800.29415 369 803.16016 C 330.62723 829.82117 303.74203 853.62115 297.47461 866.47852 C 294.79389 871.97791 292.76514 880.97247 293.44336 884.35156 C 293.68048 885.53297 294.13879 890.2125 294.46094 894.75 C 295.01959 902.61861 294.95183 903 292.97461 903 C 289.12823 903 285.23076 900.10913 283.07422 895.6543 C 280.69188 890.73304 278.78173 880.35882 276.9707 862.5 C 275.70195 849.98858 276.48732 841.89563 279.54492 835.93555 C 281.47697 832.16948 300.31956 814.45673 300.81445 815.94141 C 301.0434 816.62824 299.39979 819.06044 297.16211 821.3457 C 294.77851 823.77998 291.47828 829.02015 289.19531 834 C 285.21171 842.68942 282.15423 853.48626 283.33984 854.67188 C 283.70342 855.03547 284 854.6275 284 853.76367 C 284 849.76066 296.46205 830.78622 305.29492 821.3418 C 320.90504 804.65082 328.54162 798.21243 342.52148 789.95312 C 347.45984 787.03553 355.55 782.18963 360.5 779.18359 C 365.45 776.17755 372.09408 772.18053 375.26367 770.30273 C 389.53899 761.84546 417.02261 742.48643 426.5 734.21289 C 449.12819 714.459 463.45511 696.4734 470.08203 679.5 C 472.94104 672.17728 472.79171 672.39132 474.11719 673.7168 C 475.76041 675.36002 470.92111 689.60951 464.87695 700.92578 C 449.74949 729.24841 432.48014 746.71238 394.31641 772.2793 C 379.80601 782.00022 354.82589 800.35648 349 805.58008 C 347.075 807.30607 341.31964 812.4383 336.21094 816.98633 C 331.10224 821.53437 327.17165 825.50368 327.47461 825.80664 C 328.17176 826.50379 331.9587 823.73414 344.5 813.35352 C 357.21348 802.83039 373.08552 791.12402 394 776.84766 C 431.21187 751.4466 446.60376 737.98735 459.25781 719.78125 C 468.46309 706.53709 473.40917 697.0235 477.61328 684.4707 L 481.28711 673.5 L 482.18164 625.5 C 482.79895 592.37855 482.74836 575.4852 482.01758 571 C 480.76243 563.29647 472.84668 543.80884 466.8418 532.37305 L 465.06641 537.73438 C 464.31641 540.04688 462.30078 541.20312 459.01953 541.20312 L 447.58203 541.20312 C 443.64453 541.20312 440.45703 542.28125 438.01953 544.4375 C 434.83203 547.28125 432.42578 551.15625 430.80078 556.0625 C 429.76953 559.21875 429.25391 562.59375 429.25391 566.1875 C 429.25391 570.1875 430.11328 573.73438 431.83203 576.82812 C 434.48828 581.60938 438.48828 584 443.83203 584 C 448.58203 584 452.59766 582.23438 455.87891 578.70312 L 464.97266 581.70312 C 460.06641 586.32812 454.03516 588.64062 446.87891 588.64062 C 439.75391 588.64062 433.72266 586.32812 428.78516 581.70312 C 423.22266 576.48438 420.44141 569.95312 420.44141 562.10938 C 420.44141 554.20312 423.41016 547.8125 429.34766 542.9375 C 430.09766 542.3125 430.91016 541.73438 431.78516 541.20312 L 422.69141 541.20312 C 419.84766 541.20312 417.41016 542.9375 415.37891 546.40625 L 414.39453 546.40625 L 416.59766 539.60938 C 417.34766 537.29688 419.36328 536.14062 422.64453 536.14062 L 459.01953 536.14062 C 461.77828 536.14062 464.15044 534.49299 466.14453 531.22852 C 464.65477 528.49625 463.16599 525.81387 462.13281 524.62891 C 460.07148 522.26477 450.80805 515.94688 445.28906 513.14062 C 437.62464 509.24347 437.72175 510.91587 445.49609 516.72266 C 449.71065 519.8706 452.71225 522.59526 452.16602 522.77734 C 451.6198 522.95941 447.42091 521.18362 442.83594 518.83008 L 434.5 514.55078 L 422.5 514.5625 C 415.9 514.56891 407.125 515.10608 403 515.75586 C 383.97384 518.75292 377.434 519.29533 359.11133 519.39453 C 346.90435 519.46058 337.80105 519.05481 335 518.32031 C 332.525 517.6713 328.25 516.60807 325.5 515.95703 C 308.72036 511.98462 294.10493 504.44186 279 491.96094 C 262.24313 478.11506 256.1703 467.03311 249.62891 438.35742 C 246.89885 426.38956 247.76856 419.97441 252.40625 417.86133 C 255.78408 416.32229 259.77575 417.54746 263.15234 421.16211 C 265.88796 424.0906 266 424.60392 266 434.17188 C 266 439.81139 266.50282 445.07965 267.16016 446.31641 C 270.35674 452.33063 291.82665 467.87914 307.5 475.53125 C 322.4988 482.85403 345 489.97602 345 487.40039 C 345 486.97351 341.92841 482.54647 338.17383 477.5625 C 334.41926 472.57853 327.83267 463.325 323.53711 457 C 319.24155 450.675 313.91309 443.25 311.69531 440.5 C 301.99511 428.47194 287.21405 416.23229 274.71484 409.87695 L 268.93164 406.93555 L 269.21484 396.71875 C 269.55151 384.63243 268.63785 385.04437 283.36328 390.32422 C 305.61938 398.30422 317.17348 408.08631 344.40625 442 C 360.04859 461.47982 366.95029 467.2363 381.22852 472.71094 C 384.53874 473.98017 390.67403 474.47784 408.5 474.92383 C 421.15 475.24031 431.67146 475.40289 431.88086 475.28516 C 432.09026 475.16742 431.3359 472.69242 430.20508 469.78516 C 429.07427 466.87789 427.59051 462.025 426.9082 459 C 423.34327 443.19508 418.58815 425.86652 415.90625 418.91211 C 410.39483 404.62054 400.53891 391.30409 381.11328 371.90234 C 367.35585 358.16182 359.53419 351.69428 345 342.04492 C 332.98785 334.06996 329.2533 330.59167 326.88867 325.16797 C 323.08433 316.44204 325.45225 291 330.06836 291 C 330.52088 291 331.02767 293.12029 331.19531 295.71289 C 331.48041 300.12214 331.87536 300.7307 337.31445 305.10547 C 340.51258 307.67778 349.96258 313.25486 358.31445 317.5 C 383.60253 330.35355 396.78619 340.19208 401.75391 349.91992 C 404.76799 355.82212 407 357.52774 407 353.92773 C 407 350.92972 411.65078 344.92811 413.44141 345.61523 C 415.17565 346.28072 419.47232 356.63253 421.07227 364 C 423.36812 374.57189 426.25809 382.89535 429.36719 387.88867 C 431.09069 390.65667 434.38001 395.97658 436.67773 399.71094 C 442.66139 409.43583 449.40125 430.48648 455.01953 457 C 456.24326 462.775 457.58169 469.075 457.99414 471 C 459.90878 479.93598 463.22396 484.03203 476.29492 493.61328 C 492.60037 505.56547 496.2648 508.41256 501.5293 513.21289 C 506.99085 518.1929 516.18649 530.78971 517.43359 535 C 517.84087 536.375 518.56773 548.975 519.04688 563 C 519.52601 577.025 520.40046 591.425 520.99023 595 C 521.58 598.575 522.31935 608.05356 522.63477 616.0625 C 523.12429 628.4922 522.89286 632.22571 521.05469 641.5625 C 519.87029 647.57856 518.37536 654.075 517.73242 656 C 515.50803 662.66003 508.75142 674.52818 503.38672 681.19727 C 500.42394 684.88043 498 688.32977 498 688.86328 C 498 689.39679 497.4375 690.06048 496.75 690.33789 C 496.01515 690.63441 496.23358 690.87548 497.28125 690.92188 C 500.10863 691.04713 506.24301 688.1372 509.34961 685.19727 C 518.75807 676.2936 525.50254 660.98955 528.09961 642.64844 C 529.76558 630.88298 528.52122 619.47341 522.63477 592.5 C 521.89339 589.10298 521.64495 568.22322 521.85938 527.37109 L 522.17578 467.24023 L 520.0332 465.24609 C 517.77689 463.14402 503.97027 456 502.16406 456 C 499.4794 456 474.58508 444.31987 471.99609 441.8457 C 467.5309 437.57852 466.3091 434.42326 461.10352 413.74219 C 459.97451 409.25678 461.45681 408 467.875 408 C 470.0787 408 472.09249 407.66017 472.34961 407.24414 C 472.60673 406.8281 471.27378 401.7656 469.38672 395.99414 C 458.0954 361.46043 455.44318 353.66953 452.38867 346.05664 C 450.52521 341.41227 449 337.25942 449 336.83008 C 449 336.40073 447.6381 333.07928 445.97461 329.44727 C 442.38146 321.60215 435.00955 299.34077 431.39844 285.43359 C 425.96476 264.50731 425.64585 262.95376 426.59961 262 C 427.84704 260.75257 433.12801 262.19245 434.11914 264.05078 C 434.54404 264.84747 436.63998 269.1 438.77734 273.5 C 440.9147 277.9 446.49371 288.925 451.17383 298 C 455.85395 307.075 460.74266 317.2 462.03906 320.5 C 463.33546 323.8 466.05056 330.03877 468.07227 334.36328 L 471.74805 342.22461 L 474.875 335.60938 C 476.5941 331.97089 478 328.83775 478 328.64648 C 478 328.05495 499.69192 283.38398 508.17773 266.5 C 516.97868 248.98898 525.55356 235 527.48633 235 C 528.16495 235 529.55348 236.11017 530.57227 237.4668 C 533.49295 241.35603 537.18972 242.47099 540.86523 240.57031 C 542.55411 239.69696 545.10115 237.74771 546.52539 236.24023 L 549.11523 233.5 L 552.52539 237.5 C 555.82643 241.37221 573.84585 272.3823 577.51172 280.5 C 578.50522 282.7 584.58449 295.31185 591.02148 308.52734 C 597.45848 321.74283 603.03512 333.53261 603.41406 334.72656 C 604.05843 336.75679 607 336.9604 607 334.97461 C 607 331.98546 637.93803 268.51667 640.99414 265.23633 C 643.58315 262.45735 646 262.34696 646 265.00781 C 646 273.26351 630.91229 323.14538 622.56055 342.5 C 621.61123 344.7 619.72159 349.65 618.36133 353.5 C 617.00106 357.35 615.50844 361.4 615.04492 362.5 C 611.23416 371.54361 603.41286 406.07189 604.68164 408.25 C 604.92192 408.6625 607.11605 409 609.55859 409 C 614.29478 409 614.8276 409.78245 613.10352 414.20312 C 612.6108 415.46652 611.64556 418.525 610.95898 421 C 607.96366 431.79748 605.41314 438.31411 603.39062 440.33203 C 602.19531 441.52462 597.23166 444.26399 592.35938 446.41992 C 580.32177 451.74641 560.24952 461.66788 556.13477 464.32617 L 552.77148 466.5 L 553.48828 515 C 553.8825 541.675 554.51825 566.2 554.90039 569.5 L 555.59375 575.5 L 556.38477 566.5 C 558.91842 537.67077 563.45671 525.06762 575.06055 514.63477 C 577.72754 512.23692 584.99279 506.66054 591.20508 502.24219 C 597.41737 497.82385 604.22363 492.55394 606.33008 490.53125 C 610.40841 486.61511 614.57184 478.75806 615.61914 473 C 615.96927 471.075 617.36598 465.225 618.72266 460 C 620.07933 454.775 621.55297 448.925 621.99805 447 C 624.57966 435.83433 633.14286 408.08631 635.79492 402.29492 C 636.75051 400.20814 639.40752 395.32511 641.69727 391.44531 C 646.74928 382.88504 648.295 379.02488 651.08594 368 C 652.26941 363.325 654.26413 356.8 655.51953 353.5 C 656.77493 350.2 658.057 346.7125 658.36914 345.75 C 659.24331 343.05452 660.34128 343.56746 666.35547 349.48633 L 671.92969 354.97266 L 672.99219 351.03125 C 673.57588 348.86357 675.23085 345.68912 676.67188 343.97656 C 681.21672 338.57531 695.79472 329.57651 727.85742 312.375 C 730.80387 310.79425 734.09728 308.2625 735.17578 306.75 C 736.25429 305.2375 737.73223 304 738.46094 304 C 740.16163 304 740.8491 302.12733 741.64844 295.32617 C 742.4281 288.69249 744.05629 287.72064 748.02148 291.51953 C 751.63223 294.97885 752.63652 300.67894 751.25 309.8457 C 749.65302 320.40386 747.25105 327.73071 744.26562 331.15234 C 742.745 332.89515 734.3 339.05052 725.5 344.83008 C 691.3846 367.23602 669.52553 389.89061 659.91406 412.80273 C 655.86124 422.46396 653.16877 432.18289 650.02539 448.5 C 648.25969 457.66566 645.15905 471.47812 644.46875 473.25 C 643.85491 474.82562 644.56849 474.99981 651.64258 475.00781 C 655.96393 475.01252 664.65897 475.47315 670.96484 476.03125 C 699.26846 478.53627 712.5436 471.87889 730.91602 445.96094 C 749.85882 419.23837 764.3371 405.40611 783.5332 395.69531 C 789.91324 392.46782 804.68344 387 807.02148 387 C 807.59946 387 808 391.40979 808 397.76562 L 808 408.53125 L 802.75781 410.39258 C 795.07949 413.11968 786.62937 419.16181 776.88477 428.89453 C 768.16943 437.59926 762.33785 445.03892 751.21875 461.63867 C 747.85205 466.66483 742.82589 473.81619 740.04883 477.53125 C 734.79329 484.56194 733.61763 487.76421 736.75 486.51562 C 737.7125 486.13198 741.77397 484.95007 745.77539 483.88867 C 762.43524 479.46954 775.81923 472.88738 796.52539 458.92773 C 812.84657 447.92433 814.58336 445.43546 813.65039 434.39844 C 812.95214 426.13808 813.78128 423.03404 817.63672 419.46094 C 821.1353 416.21856 824.24494 416.35295 828.23438 419.91797 C 831.31462 422.67054 831.49218 423.19601 831.34766 429.16797 C 831.20823 434.92958 828.61156 446.90168 825.85352 454.5 C 821.6369 466.11668 811.66483 480.78028 803.23828 487.75586 C 789.83976 498.84727 776.27651 506.21406 758 512.32812 C 738.72679 518.77562 735.28115 519.3323 719.06445 518.61719 C 711.05386 518.26395 701.125 517.53277 697 516.99219 C 684.97212 515.41594 671.30283 514.08293 659.81836 513.36719 C 645.27251 512.46065 639.71637 514.05954 627.79102 522.57617 C 625.20061 524.42615 622.82308 525.52452 622.50977 525.01758 C 621.94854 524.10949 626.32545 519.70894 634.84375 512.61719 C 640.14659 508.20242 637.78196 507.66672 631.67969 511.90039 C 619.66491 520.23606 615.50801 528.7977 609.05273 558.5 C 607.124 567.37457 606.03084 591.70294 606.01562 626.05859 L 606 659.61914 L 613.75 664.21484 C 622.586 669.45468 645.60088 680.65102 664 688.66016 C 670.875 691.65285 677.85 694.71648 679.5 695.46875 C 688.23652 699.4519 704.45275 705.42494 713.37891 707.94727 C 730.67655 712.83519 734.16889 713.43241 745.5 713.44141 C 755.89573 713.44979 756.86975 713.2704 763.24609 710.17578 C 770.21793 706.79214 771.71778 705.283 779.75 693.57812 C 786.54903 683.6703 790.56841 680.73068 798.05078 680.18945 C 805.24822 679.66884 811.36688 681.68759 815.41797 685.91602 L 818.17773 688.79492 L 816.91016 701.75977 C 815.96095 711.46541 815.90134 718.08876 816.67188 728.11133 C 817.23797 735.47467 817.56347 741.66562 817.39648 741.86914 C 817.22949 742.07266 815.51706 741.94358 813.58984 741.58203 C 805.96838 740.15224 794.19662 727.78763 791.85352 718.75 C 791.1762 716.1375 790.33807 714 789.99219 714 C 789.6463 714 786.24428 717.45925 782.43164 721.6875 C 766.82202 738.99872 760.33909 743.81549 749.75 745.9707 C 740.27535 747.89909 725.36303 743.91693 712.45312 736.00977 C 708.62942 733.6678 704.15 730.97508 702.5 730.02539 C 700.85 729.0757 696.575 726.40071 693 724.08203 C 687.38364 720.43936 607.70718 680 606.14648 680 C 604.43837 680 630.19407 703.77899 642 713.10156 C 650.63715 719.92189 668.59662 731.73314 681.24609 738.91211 C 696.71151 747.68922 708.33075 756.53803 723.80664 771.32422 C 730.24032 777.47116 738.87816 785.42365 743.00195 788.99805 C 747.12574 792.57244 750.725 795.72518 751 796.00391 C 752.62742 797.65342 764.77959 806.09186 780.12109 816.22461 C 789.81225 822.62543 799.09383 829.50486 800.74805 831.51172 C 802.64971 833.81876 804.16949 837.21361 804.87891 840.74609 C 806.09007 846.77685 806.21801 863.11596 805.125 872 C 804.50481 877.04092 804.38593 876.54011 803.70508 866 C 803.29651 859.675 802.31307 852.25 801.51758 849.5 C 800.15025 844.77325 800.07936 845.62032 800.23242 865 C 800.36196 881.40209 800.02608 887.34906 798.55078 894.75 C 797.53664 899.8375 796.39467 904 796.01367 904 C 794.32131 904 793.00794 898.15942 792.03125 886.29492 C 790.742 870.63357 789.60525 865.28728 785.86914 857.32617 C 780.93226 846.80636 771.27758 838.38359 742.60156 819.57812 C 726.21018 808.82881 712.19498 800 711.52539 800 C 711.37711 800 706.81192 797.46203 701.37891 794.35938 C 689.03581 787.31052 655.04979 770.30402 644.83789 766.06641 C 640.62343 764.31754 636.16578 762.01203 634.93359 760.94336 C 631.80149 758.22687 629.30231 758.72045 631.85742 761.55078 C 632.32912 762.07328 634.41566 766.55 636.49414 771.5 C 638.57261 776.45 641.7588 783.425 643.57422 787 C 646.92197 793.5925 651.95104 805.80577 654.69141 814 C 655.51911 816.475 656.66727 818.95 657.24414 819.5 C 657.94923 820.1722 658.09431 820.14226 657.68555 819.4082 C 657.35112 818.80762 656.64595 815.88262 656.11914 812.9082 C 655.59234 809.93378 654.46706 804.8 653.61719 801.5 C 651.19319 792.08769 651.59421 787.10519 654.55078 789.89844 C 655.07328 790.39208 662.13965 794.21305 670.25586 798.39062 C 678.37207 802.56822 687.98187 807.78841 691.60938 809.99219 C 695.23686 812.19597 698.34284 814 698.51172 814 C 698.68061 814 703.69776 816.97993 709.66016 820.62305 C 715.62256 824.26617 722.57342 828.49235 725.10742 830.01367 C 736.77491 837.0184 758.8559 852.57163 762.13672 856.0957 C 769.07071 863.54379 771.46552 871.25414 773.13477 891.5 C 774.76839 911.31378 777.55513 918.10847 786.375 923.78906 C 789.85324 926.02928 791.63333 926.45006 797.72461 926.47266 C 804.14877 926.49653 805.23222 926.2186 807.49609 923.95703 C 809.16005 922.29477 810.46803 919.35006 811.27148 915.45703 C 811.94762 912.1809 813.66475 907.925 815.08789 906 C 821.94796 896.72072 822.78141 891.97277 823.17383 860 L 823.5 833.5 L 820.69336 827.50586 C 817.61388 820.92854 812.89104 816.02547 803.58789 809.74609 C 800.23923 807.48583 795.925 804.43314 794 802.96289 C 792.075 801.49263 783.525 795.07963 775 788.71094 C 766.475 782.34224 757.90515 775.5869 755.95703 773.69922 C 754.00891 771.81154 750.92132 769.49391 749.09375 768.54883 C 745.2291 766.55035 745.75045 765.8302 752.25586 764.19727 C 763.67842 761.3301 774.89782 753.95056 780.05859 745.9082 L 783.22266 740.97852 L 789.45312 746.80664 C 795.83578 752.77729 802.32485 756.3737 823 765.39844 C 828.775 767.91924 835.18479 770.84678 837.24414 771.9043 C 839.30349 772.96179 841.22292 773.44848 841.50977 772.98438 C 841.79661 772.52023 840.03923 764.12126 837.60352 754.32031 C 831.31285 729.00757 830.35677 720.14842 832.55469 707.5 C 833.51042 702 834.45431 694.35 834.65234 690.5 C 834.96438 684.43388 834.64462 682.76731 832.25586 678.00195 C 829.06792 671.64233 823.79446 667.25087 815.2832 663.87305 C 810.71784 662.06122 807.49575 661.56996 799.97852 661.53906 C 791.24687 661.50317 789.92033 661.76435 783.97852 664.69531 C 774.12291 669.55687 766.71258 676.72004 762.65234 685.30664 C 760.78138 689.26337 758.74888 693.74941 758.13477 695.27734 C 757.52066 696.80528 756.29172 698.33525 755.4043 698.67578 C 754.51688 699.01632 748.77437 698.07004 742.64453 696.57422 C 725.78807 692.46085 710.2959 687.10276 687 677.32617 C 674.18471 671.94798 672.57401 671.22418 658.12695 664.35742 C 650.77137 660.86128 644.59354 658 644.40039 658 C 643.14071 658 629.95734 651.41048 627.5 649.55273 L 624.5 647.28516 L 624.80469 633.64258 L 625.10742 620 L 709.23242 620 C 771.68138 620 794.2037 619.69441 796.64258 618.8125 C 799.30163 617.85097 800.44124 617.89864 802.61523 619.0625 C 804.83374 620.2502 812.89792 620.5 848.94336 620.5 C 888.95448 620.5 892.81036 620.35349 895.2793 618.73633 C 898.8513 616.39667 900.77226 613.30997 903.35547 605.76367 L 905.5 599.5 L 919.5 599 C 934.65456 598.45877 938.9373 597.15932 945.33984 591.16016 C 951.03763 585.82169 951.06567 585.6289 951.04688 551.9668 C 951.02808 518.2751 950.97163 517.90112 945.24023 512.46484 C 939.27482 506.80659 929.76181 504.02421 916.32227 504.00781 C 907.47913 503.997 906.49803 502.50242 905.69141 487.81445 C 905.05667 476.25639 902.91561 460.61129 898.49023 435.20703 C 895.13692 415.95708 895.1821 411.0933 898.75 407.50977 C 900.2625 405.99065 907.96744 401.61957 915.87109 397.79492 L 930.24023 390.83984 L 933.37109 393.77539 C 935.09244 395.3896 937.27063 396.98102 938.21289 397.31055 C 940.60766 398.14805 944 393.54513 944 389.45898 C 944 386.57884 930.62928 349.08874 925.29102 337 C 924.19808 334.525 921.81443 328.675 919.99219 324 C 918.16996 319.325 916.2729 314.96968 915.77734 314.32227 C 915.28178 313.67487 912.87655 312.46392 910.43164 311.63086 C 906.20456 310.19054 905.72659 310.23174 900.69922 312.45508 C 887.536 318.27649 866.33799 321.85755 861.22852 319.12305 C 858.63988 317.73765 853.08507 308.64104 842.48242 288.42383 C 839.46662 282.67328 837 277.14854 837 276.14648 C 837 275.09314 844.02914 267.61472 853.66211 258.41992 C 872.49158 240.44693 875 236.64725 875 226.09375 C 875 214.31908 870.54125 207.65172 848.97852 187.18359 L 831.92969 171 L 826.58789 171 C 823.64936 171 819.57301 171.69768 817.53125 172.55078 C 815.48949 173.40388 807.89807 179.76082 800.66016 186.67578 C 793.42225 193.59074 785.68407 200.49646 783.46484 202.02344 C 779.80419 204.54223 779.15482 204.68354 776.46484 203.53906 C 771.24331 201.31749 739.80838 177.4377 733.07812 170.58008 L 728.75977 166.17969 L 731.22461 162.83984 C 732.57972 161.00273 734.68283 156.98109 735.89844 153.90234 C 737.11405 150.82358 740.5722 144.17334 743.58398 139.125 C 750.05317 128.28136 750.80181 125.4923 748.52734 120.69922 C 746.11366 115.61276 743.82162 114.26872 711.5 98.990234 C 684.2557 86.111805 680.686 85.144048 672.71484 88.474609 C 667.47938 90.662125 665.86356 93.38556 661.0918 108.06641 C 657.48697 119.1571 656.12112 122.05407 652.99023 125.24805 C 648.30895 130.02367 644.56125 130.73743 634.83008 128.70703 C 630.79904 127.86596 624.575 126.65063 621 126.00586 C 599.66092 122.15723 593.88316 119.80217 589.49414 113.16992 C 587.13133 109.59948 587.02038 108.69587 586.71289 90.476562 C 586.45548 75.224384 586.06175 70.813166 584.70898 68 C 579.98059 58.166987 571.24411 53.044315 559.1543 53.015625 z M 515.58984 74.449219 C 518.42554 74.524843 522.03089 76.223572 523.98438 78.707031 C 525.74869 80.949993 526 82.752187 526 93.166016 C 526 101.18604 526.46381 106.17189 527.42188 108.46484 C 529.82713 114.22142 537.9229 116.84373 542.7832 113.43945 C 546.97004 110.50686 548 106.86977 548 95.017578 C 548 81.575651 549.31316 77.603678 554.46484 75.451172 C 557.54541 74.164028 558.44083 74.157602 561.41992 75.402344 C 563.30065 76.188163 565.35209 77.788475 565.97852 78.958984 C 566.77372 80.444747 567.02395 89.351629 566.80859 108.46484 L 566.5 135.8418 L 564.07422 138.42188 C 562.74006 139.84104 560.04006 141.45 558.07422 141.99609 C 556.10838 142.54219 545.56789 142.99114 534.65039 142.99414 L 514.80078 143 L 511.40039 139.59961 L 508 136.19922 L 508 108.32227 C 508 78.575674 508.14914 77.596679 513.09961 74.947266 C 513.78406 74.580956 514.64461 74.424011 515.58984 74.449219 z M 535 161.54102 C 570.32263 161.49936 577.17684 161.98021 600.5 166.13086 C 641.88154 173.49524 686.72854 192.27193 727.5 219.30664 C 741.76074 228.76263 744.00114 230.68088 743.99414 233.42383 C 743.98394 237.22146 741.92369 243 740.58008 243 C 739.79826 243 738.98137 244.70928 738.58789 247.16992 C 737.93858 251.23053 733.71449 264.43894 728.59961 278.39648 C 723.75418 291.61875 721.76653 293.39831 698 305.78906 C 692.225 308.79987 685.025 312.72584 682 314.51367 C 676.90574 317.52446 666.19139 323.45175 660.08789 326.63672 C 655.72079 328.91559 653.75503 328.43772 654.38281 325.25 C 654.68068 323.7375 655.19479 320.25 655.52539 317.5 C 656.24313 311.52956 659.35194 296.61464 662.61328 283.5 C 665.37201 272.4065 669.61753 249.45014 669.25781 247.56836 C 668.62818 244.27471 663.6061 239.372 660.1543 238.68164 C 653.1538 237.28154 629.02058 242.92691 600.07031 252.73828 C 587.95146 256.84541 589.51811 257.52715 581.99219 244.87109 C 576.22096 235.16583 567.21866 223.59086 556.81445 212.5 C 548.31473 203.43933 542 195.12186 542 192.98633 C 542 190.88744 539.62722 192.57964 537.68164 196.06641 C 536.62814 197.95446 529.85594 205.58278 522.63281 213.01758 C 508.34778 227.72123 501.00532 236.99189 493.54102 249.75 C 490.88629 254.2875 488.43964 258 488.10352 258 C 487.76739 258 479.39403 255.25298 469.49609 251.89648 C 453.41221 246.44227 445.80682 244.17091 432.5 240.8418 C 430.3 240.2914 425.26247 239.60415 421.30469 239.31445 C 415.00839 238.85356 413.72447 239.06048 411.03906 240.97266 C 406.87814 243.93549 404.70714 248.41701 405.27344 252.87891 C 405.74195 256.57032 409.17113 274.93749 413.41602 296.5 C 416.57468 312.5449 418 321.19354 418 324.30664 C 418 325.72327 417.65321 327.09616 417.23047 327.35742 C 416.80773 327.61869 411.74523 325.02215 405.98047 321.58789 C 400.21571 318.15362 389.65 312.33437 382.5 308.65625 C 375.35 304.97813 368.825 301.54226 368 301.02148 C 366.58181 300.25778 362.62814 298.11233 350.4375 290.67578 C 348.85618 288.92679 340.38536 266.61206 338.04102 258.01953 C 335.88066 250.10133 335.61906 245.69191 336.65625 234.70898 L 337.29688 227.91797 L 344.89844 222.51758 C 349.07929 219.54792 354.3 215.7889 356.5 214.16406 C 373.01882 201.96382 417.682 180.62796 438.5 174.99219 C 440.15 174.5455 444.875 173.24149 449 172.09375 C 481.54016 163.03979 493.35744 161.59012 535 161.54102 z M 758.35742 245.84961 C 758.82886 245.82267 764.61443 251.58286 771.21289 258.65039 C 788.52313 277.19119 805.96165 299.32937 814.81445 314 C 816.63985 317.025 819.22833 320.64959 820.56641 322.05469 C 821.90448 323.45978 823 325.19087 823 325.90039 C 823 326.94259 809.79443 354.78756 804.45703 365 C 803.49527 366.8402 800.82444 368.36459 794.33984 370.77734 C 771.59057 379.24174 748.14093 394.11314 741.55664 404.25 C 737.78672 410.05399 737.08198 406.91328 739.52539 395.20117 C 743.34978 376.8696 755.50915 350.85168 768.3418 333.54297 C 774.49916 325.23791 775.21219 323.92408 776.94141 317.72461 C 778.64011 311.63453 777.91323 304.68462 774.52148 294.62305 C 770.05094 281.36127 766.26947 277.20467 756.99414 275.34961 C 755.25296 275.00137 753.58507 274.08389 753.28906 273.3125 C 752.99305 272.54112 753.49837 267.54299 754.41016 262.20508 C 756.74236 248.55177 757.38039 245.90541 758.35742 245.84961 z M 314.12891 246.73047 C 314.5868 247.18836 315.97601 253.57804 317.21484 260.93164 C 319.39928 273.89829 319.41151 274.33491 317.61328 275.40039 C 311.14321 279.23405 309.15694 281.18439 306.27734 286.52344 C 300.95845 296.38518 297.68394 307.48777 297.58594 316 C 297.48986 324.34447 298.57072 326.81692 307.41797 338.5 C 315.74504 349.49617 327.11536 373.34984 330.48438 386.89062 C 331.25189 389.97549 332.18452 393.5125 332.55664 394.75 C 333.52698 397.97684 331.82111 397.55112 327.36133 393.45312 C 316.24586 383.2394 299.25914 374.10054 282.79297 369.47656 C 277.45375 367.97722 272.471 366.01904 271.7207 365.125 C 270.97041 364.23097 269.10049 360.575 267.56641 357 C 266.03234 353.425 262.08932 345.39917 258.80273 339.16406 C 254.73154 331.44044 253.00753 327.13802 253.39258 325.66406 C 253.9458 323.54634 263.69783 308.42129 273.48633 294.5 C 279.85053 285.44879 293.18343 269.14688 302.71094 258.76953 C 306.84415 254.26765 310.91702 249.53136 311.76172 248.24219 C 312.60642 246.95301 313.67102 246.27258 314.12891 246.73047 z M 451.39062 267.46094 C 452.2999 266.98793 455.14792 268.16248 463.39062 271.96875 C 467.85026 274.02809 473.67504 276.52905 476.33398 277.52539 C 480.58598 279.1188 481.09805 279.61685 480.58398 281.66797 C 480.26254 282.95051 479.71404 285.2375 479.36523 286.75 C 478.51145 290.45218 478.08757 298.52419 473.62891 300.79883 C 466.27559 304.55021 464.33922 296.98221 457.54688 283 C 455.00865 277.775 452.49601 272.71871 451.96484 271.76367 C 451.43367 270.80863 451 269.31484 451 268.44531 C 451 267.95764 451.08754 267.61861 451.39062 267.46094 z M 623.79492 267.46094 C 623.97618 267.64221 621.20334 273.85311 617.63281 281.26172 C 614.06227 288.67034 608.94265 301.86903 608.17383 302.16406 C 603.99489 303.76767 597.36403 287.93547 596.77539 281.13672 C 596.50966 278.06759 596.72748 277.87328 603 275.57812 C 606.575 274.27002 612.64187 271.83471 616.48242 270.16602 C 620.32298 268.49733 623.61365 267.27968 623.79492 267.46094 z M 539.73828 268.00977 C 538.47653 268.01917 535.29098 273.68542 522.60352 298.5 C 515.54072 312.31369 503.43309 337.43565 495.85547 354 C 493.71682 358.675 490.62549 365.05611 488.98438 368.17969 C 486.50542 372.89791 486 375.03208 486 380.79297 C 486 394.61351 489.05068 403.66604 497.44922 414.76367 C 503.87453 423.25392 508.68522 425.96676 517.58789 426.11914 C 521.38957 426.18422 525.85 426.53157 527.5 426.89258 C 531.26549 427.71646 531.87478 426.04296 529.18945 422.25586 C 526.6841 418.7226 523.70352 413.56372 514.88477 397.5 C 510.95952 390.35 506.45582 382.33264 504.875 379.68359 C 503.29417 377.03455 502 374.46777 502 373.97852 C 502 373.48927 503.25732 370.93162 504.79492 368.29492 C 506.33251 365.65821 508.43541 361.7 509.4668 359.5 C 510.49819 357.3 513.77342 350.325 516.74609 344 C 522.04833 332.71831 524.40997 327.48801 526.00195 323.5 C 526.44106 322.4 527.73978 319.37711 528.88867 316.7832 C 530.03756 314.1893 532.6051 308.0018 534.59375 303.0332 C 536.58239 298.06461 538.50069 294.00472 538.85547 294.01172 C 539.21025 294.0185 540.7951 297.281 542.37695 301.26172 C 543.95881 305.24245 546.50754 311.2 548.04102 314.5 C 552.21192 323.47567 556.4592 332.94655 558.58008 338 C 561.45765 344.85642 572.017 366.02404 574.6582 370.23047 C 577.56591 374.86133 577.56291 375.03726 574.49219 378.59375 C 572.01162 381.46672 564.5757 393.28446 559.76562 402 C 555.67943 409.40393 553.46668 413.23414 550.22852 418.5 C 545.37451 426.39352 545.27049 426.24513 555.5 426.07422 C 569.82221 425.83494 573.03433 424.24626 579.91602 414 C 587.61594 402.53547 593.7711 384.1826 592.74023 375.76367 C 592.15402 370.97627 585.70174 357.09918 554.95508 294.5 C 544.42389 273.05885 541.51668 267.99647 539.73828 268.00977 z M 760.11719 296.42773 C 761.66555 295.47079 766.39201 306.54284 765.24219 308.43359 C 764.88561 309.01995 763.56025 310.31985 762.29688 311.32227 C 761.0335 312.32469 760 313.67445 760 314.32227 C 760 314.9701 758.2 317.47019 756 319.87695 C 753.8 322.28372 752 323.96286 752 323.60742 C 752 323.25198 753.0765 320.31117 754.39258 317.07227 C 755.70867 313.83336 757.35914 307.97174 758.06055 304.04688 C 758.76197 300.122 759.68728 296.69342 760.11719 296.42773 z M 319.47852 296.64258 C 320.63747 297.08763 320.88632 300.51675 321.32227 311.75 C 321.56239 317.9375 321.5784 323 321.35742 323 C 320.70303 323 315.33702 314.22875 313.96484 310.91602 C 312.89357 308.32975 312.95364 307.32191 314.34961 304.39453 C 315.25767 302.49031 316 300.28894 316 299.50195 C 316 298.71496 316.88813 297.59513 317.97461 297.01367 C 318.60341 296.67715 319.0922 296.49423 319.47852 296.64258 z M 538.32227 315.92578 C 538.12183 316.04777 538 316.3914 538 316.99609 C 538 317.54377 536.38094 321.48127 534.40234 325.74609 C 527.87405 339.81766 519 361.00135 519 362.51367 C 519 363.7791 521.96421 364 538.94141 364 C 549.90895 364 559.1291 363.59889 559.43164 363.10938 C 559.73418 362.61984 558.88916 360.25733 557.55273 357.85938 C 554.79352 352.90847 542.90371 325.43465 541.06055 319.75 C 540.23006 317.1886 538.92358 315.55983 538.32227 315.92578 z M 736.73242 350.26953 C 737.152 350.13377 737.47384 350.13985 737.6582 350.32422 C 738.16589 350.83191 736.76126 352.73051 731.13281 359.15625 C 727.64247 363.14101 726 363.94892 726 361.67969 C 726 359.13191 733.79538 351.21987 736.73242 350.26953 z M 338.04102 350.82031 C 338.09262 349.14468 344 355.97757 344 357.71289 C 344 358.42116 344.45 359 345 359 C 345.55 359 346 359.45 346 360 C 346 360.55 345.57241 361 345.04883 361 C 343.81212 361 337.98802 352.54005 338.04102 350.82031 z M 836.76367 356.23633 C 837.48864 355.99973 838.7049 357.46117 839.61523 359.66211 C 840.48834 361.77306 842.22063 365.75 843.46484 368.5 C 846.77465 375.81546 857.88211 410.64528 858.93945 417.02539 C 859.43845 420.03647 860.52201 425.875 861.34766 430 C 863.93522 442.92762 864.983 453.94401 865.24609 471 L 865.5 487.5 L 848.75 487.77344 C 834.58003 488.00539 832 487.82346 832 486.58398 C 832 485.77814 832.45347 484.83869 833.00781 484.49609 C 833.56215 484.15349 836.59965 480.48136 839.75781 476.33789 C 842.91597 472.19441 846.89834 466.98602 848.60742 464.76367 C 855.94922 455.21697 858.11805 438.02887 854.0293 421.80469 C 850.61386 408.25218 846.10987 403.99068 834.36719 403.19727 L 828.23438 402.78125 L 827.01953 391.78125 C 826.35143 385.73123 826.10841 378.91817 826.47852 376.64062 C 827.24207 371.942 834.84269 356.86323 836.76367 356.23633 z M 240.5293 357 C 241.10114 357 243.74396 361.54675 246.40234 367.10352 L 251.23438 377.20703 L 250.36719 389.84375 C 249.67833 399.87903 249.19114 402.52076 248 402.67383 C 238.18075 403.93562 233.89675 406.72249 230.30078 414.1875 C 226.86865 421.31237 225.99837 426.168 226.01367 438.11523 C 226.03411 454.10306 229.15692 462.42868 240.52148 476.80078 C 244.08481 481.30711 247 485.44436 247 485.99609 C 247 486.54782 244.82069 487 242.15625 487 C 239.49181 487 232.62931 487.18784 226.90625 487.41797 C 221.18319 487.64812 215.2625 487.61822 213.75 487.35156 L 211 486.86719 L 211 478.10742 C 211 464.30182 214.76504 440.70884 220.51172 418.5 C 226.5803 395.0471 228.31809 388.96965 231.66797 379.5 C 233.61359 374 236.1699 366.6875 237.34766 363.25 C 238.52542 359.8125 239.95746 357 240.5293 357 z M 429.29102 357.17969 C 432.08983 358.00385 438.16031 366.85245 439.33594 372.5 C 439.67941 374.15 440.6395 378.63175 441.4707 382.45898 C 444.05692 394.36713 440.83907 392.66236 433.99609 378.5 C 430.15212 370.54443 426.97058 358.6974 428.31641 357.35156 C 428.55892 357.10905 428.89119 357.06195 429.29102 357.17969 z M 643.61719 359 C 645.35354 359 642.90837 369.13812 638.25 381.25586 C 636.18737 386.62133 633.6771 392.02133 632.67188 393.25586 L 630.84375 395.5 L 631.375 391.5 C 633.90215 372.47476 634.83781 368.93189 638.64062 363.94531 C 640.71471 361.2256 642.95398 359 643.61719 359 z M 539 370.64453 C 521.77839 371.2175 517.30093 371.77513 516.66602 373.42969 C 515.90281 375.41859 524.55438 391.79372 533.21484 404.75 C 535.88023 408.7375 538.38551 412.00002 538.78125 412 C 539.73152 411.99996 544.95839 405.48803 547.58398 401.03516 C 548.7307 399.09037 552.69207 392.5908 556.38477 386.5918 C 560.3168 380.20399 562.97391 374.8174 562.79883 373.5918 C 562.3973 370.78092 556.56866 370.06001 539 370.64453 z M 703.41406 383.78711 L 704.61719 390.92383 C 706.60364 402.71327 713.60295 415.19285 720.11914 418.5625 C 721.70362 419.38187 723 420.43134 723 420.89648 C 723 421.36162 721.25138 423.71286 719.11523 426.12109 L 715.23242 430.5 L 694.11523 430.82227 C 672.41563 431.15358 671.89528 431.06113 673.91797 427.23633 C 675.364 424.50195 679 416.07989 679 415.46484 C 679 414.33228 688.97849 400.38138 692.20703 397 C 694.04503 395.075 697.31944 391.31533 699.48242 388.64453 L 703.41406 383.78711 z M 366.97266 386 C 368.06947 386 379.72828 398.11089 384.78125 404.5 C 390.17435 411.31918 401.02108 429.15884 400.39258 430.17578 C 399.85667 431.0429 390.88775 431.00658 372.44727 430.06445 C 359.28278 429.39188 357.63571 428.55758 353.28516 420.35547 L 350.17969 414.5 L 353.20312 411 C 358.18798 405.23162 363.81988 396.11427 364.50586 392.70117 C 365.56571 387.42793 366.09075 386 366.97266 386 z M 241.30859 430.48633 C 242.59657 429.86289 243.80612 433.16972 244.33594 439.4375 C 244.72455 444.0347 245.73492 448.24769 246.98242 450.46875 C 248.09234 452.44487 249 454.49798 249 455.03125 C 249 456.96209 247.04881 455.92943 244.58203 452.69531 C 239.43171 445.94289 237.73901 438.44498 240.01562 432.45703 C 240.44036 431.33991 240.87927 430.69414 241.30859 430.48633 z M 837.89062 430.56836 C 839.16403 429.78137 842 436.22987 842 439.91211 C 842 443.72769 838.88322 450.56734 835.46484 454.25391 C 831.37334 458.66641 830.80611 457.44284 834.01562 451.12695 C 836.49306 446.25168 837 444.05151 837 438.18555 C 837 434.29855 837.401 430.87097 837.89062 430.56836 z M 389.79688 447.89062 C 396.76436 448.0385 403.73135 448.39714 404.14453 448.82812 C 404.49908 449.19797 405.09797 450.9625 405.47461 452.75 C 406.14174 455.91605 406.07357 455.99716 402.83008 455.89648 C 400.99887 455.83963 397.925 455.4384 396 455.00391 C 394.075 454.56942 389.575 453.68207 386 453.0332 C 379.58629 451.86908 374.23698 449.42903 375.44727 448.21875 C 375.86071 447.8053 382.82938 447.74277 389.79688 447.89062 z M 687.14648 448.37695 L 704.79102 448.5 L 701.82617 451.15234 C 700.19495 452.61074 697.20373 454.02712 695.17969 454.30078 C 693.15565 454.57445 688.35 455.26143 684.5 455.82617 C 673.30915 457.46773 669.16476 457.83273 668.5625 457.23047 C 667.75086 456.41882 667.89898 450.70096 668.76562 449.37695 C 669.2681 448.60932 675.078 448.29325 687.14648 448.37695 z M 486.75 470.11328 C 486.91369 470.12209 487 470.28908 487 470.61523 C 487 471.52941 495.70471 475.97533 500.33398 477.42578 C 501.34221 477.74168 502.00148 478.49752 501.79883 479.10547 C 501.59618 479.71342 498.83731 481.26606 495.66992 482.55469 L 489.91211 484.89844 L 488.875 482.19922 C 485.77013 474.11548 485.1251 471.47451 486.03516 470.56445 C 486.34466 470.25496 486.58631 470.10447 486.75 470.11328 z M 591.64453 471.6582 C 592.08159 471.91809 591.61508 473.07554 590.61719 475.34961 C 589.85668 477.08273 588.67731 479.9625 587.99609 481.75 C 586.52203 485.61795 585.30669 485.68684 578.1582 482.30859 C 572.36777 479.57213 572.41079 478.8984 578.5 476.98438 C 580.7 476.29286 584.6375 474.65488 587.25 473.3457 C 589.86689 472.03432 591.20747 471.39832 591.64453 471.6582 z M 893.22852 490.65039 L 895.05078 493.06641 C 896.76685 495.34148 896.86111 498.60969 896.68555 549.08789 C 896.53338 592.84606 896.24728 602.99595 895.12695 604.3457 C 893.50989 606.2939 889.46333 606.53417 888.30859 604.75 C 887.67043 603.764 887.5536 565.95229 887.98242 498.89648 C 887.99158 497.4643 889.17556 495.02202 890.61328 493.4707 L 893.22852 490.65039 z M 206.00781 512.50586 C 208.42981 514.00273 207.84906 559.0547 205.05469 586.39258 C 204.44501 592.35718 203.60478 595.81386 202.50391 596.89258 C 200.98312 598.38277 200.90682 597.10645 201.4668 579.5 C 202.67223 541.60006 204.69911 511.69703 206.00781 512.50586 z M 180.1543 515.58789 C 180.77819 515.46134 180.83171 519.78918 180.81836 534.5 C 180.80788 546.05 180.2806 560.89528 179.64844 567.49023 C 178.68213 577.57132 178.22128 579.53491 176.75 579.81445 C 175.22415 580.10435 174.99565 579.27357 174.96875 573.32422 C 174.95177 569.5714 174.51013 563.2002 173.98633 559.16602 C 172.76463 549.75676 175.9228 524.78836 179.32227 516.98047 C 179.67602 516.16796 179.94633 515.63008 180.1543 515.58789 z M 867.125 515.61133 C 869.547 517.1082 870.96429 562.16017 868.16992 589.49805 C 867.56024 595.46265 866.72196 598.91933 865.62109 599.99805 C 864.1003 601.48824 864.024 600.21192 864.58398 582.60547 C 865.78941 544.70553 865.8163 514.8025 867.125 515.61133 z M 237.53516 515.98438 C 239.75391 516.60938 241.33203 518 242.26953 520.15625 C 245.83203 517.375 250.03516 515.98438 254.87891 515.98438 C 261.41016 515.98438 266.89453 518.04688 271.33203 522.17188 C 275.92578 526.45312 278.22266 531.98438 278.22266 538.76562 C 278.22266 545.57812 275.92578 551.09375 271.33203 555.3125 C 269.26953 557.1875 266.42578 558.82812 262.80078 560.23438 C 268.73828 568.39062 276.16016 575.45312 285.06641 581.42188 C 286.84766 582.60938 288.41016 583.20312 289.75391 583.20312 C 290.94141 583.20312 292.08203 583.0625 293.17578 582.78125 L 293.64453 584.375 L 280.84766 588.64062 C 268.72266 580.35938 258.37891 569.45312 249.81641 555.92188 C 254.56641 555.92188 258.31641 554.85938 261.06641 552.73438 C 264.06641 550.45312 266.19141 547.40625 267.44141 543.59375 C 268.25391 541.125 268.66016 538.40625 268.66016 535.4375 C 268.66016 532.3125 267.87891 529.5 266.31641 527 C 264.06641 523.40625 261.08203 521.60938 257.36328 521.60938 C 254.08203 521.60938 251.20703 522.625 248.73828 524.65625 C 245.11328 527.625 243.30078 531.90625 243.30078 537.5 L 243.30078 587.5625 L 240.16016 588.64062 C 236.31641 587.54688 234.39453 584.20312 234.39453 578.60938 L 234.39453 526.20312 C 234.39453 522.79688 232.80078 521.09375 229.61328 521.09375 C 228.42578 521.09375 227.28516 521.23438 226.19141 521.51562 L 225.72266 519.92188 L 237.53516 515.98438 z M 648.58203 515.98438 C 650.80078 516.60938 652.37891 518 653.31641 520.15625 C 656.87891 517.375 661.08203 515.98438 665.92578 515.98438 C 672.45703 515.98438 677.94141 518.04688 682.37891 522.17188 C 686.97266 526.45312 689.26953 531.98438 689.26953 538.76562 C 689.26953 545.57812 686.97266 551.09375 682.37891 555.3125 C 680.31641 557.1875 677.47266 558.82812 673.84766 560.23438 C 679.78516 568.39062 687.20703 575.45312 696.11328 581.42188 C 697.89453 582.60938 699.45703 583.20312 700.80078 583.20312 C 701.98828 583.20312 703.12891 583.0625 704.22266 582.78125 L 704.69141 584.375 L 691.89453 588.64062 C 679.76953 580.35938 669.42578 569.45312 660.86328 555.92188 C 665.61328 555.92188 669.36328 554.85938 672.11328 552.73438 C 675.11328 550.45312 677.23828 547.40625 678.48828 543.59375 C 679.30078 541.125 679.70703 538.40625 679.70703 535.4375 C 679.70703 532.3125 678.92578 529.5 677.36328 527 C 675.11328 523.40625 672.12891 521.60938 668.41016 521.60938 C 665.12891 521.60938 662.25391 522.625 659.78516 524.65625 C 656.16016 527.625 654.34766 531.90625 654.34766 537.5 L 654.34766 587.5625 L 651.20703 588.64062 C 647.36328 587.54688 645.44141 584.20312 645.44141 578.60938 L 645.44141 526.20312 C 645.44141 522.79688 643.84766 521.09375 640.66016 521.09375 C 639.47266 521.09375 638.33203 521.23438 637.23828 521.51562 L 636.76953 519.92188 L 648.58203 515.98438 z M 774.53516 515.98438 C 778.37891 517.07812 780.30078 520.375 780.30078 525.875 L 780.30078 578.60938 C 780.30078 582.10938 781.89453 583.85938 785.08203 583.85938 C 786.26953 583.85938 787.41016 583.71875 788.50391 583.4375 L 788.97266 585.03125 L 778.09766 588.64062 C 774.25391 587.54688 772.33203 584.20312 772.33203 578.60938 L 772.33203 525.875 C 772.33203 522.46875 770.73828 520.76562 767.55078 520.76562 C 766.36328 520.76562 765.22266 520.90625 764.12891 521.1875 L 763.66016 519.59375 L 774.53516 515.98438 z M 141.88867 525.78906 C 142.46861 524.82664 142.61539 527.8754 143.02344 539 C 143.71437 557.83679 142.95967 574.1895 141.5 572 C 139.87861 569.56791 139.58032 533.18946 141.13867 527.9375 C 141.4537 526.87579 141.69536 526.10987 141.88867 525.78906 z M 486.38867 534.2793 C 486.15796 534.51 488.21989 539.37916 490.9707 545.09961 C 493.72151 550.82005 495.97833 556.26137 495.98633 557.19141 C 495.99424 558.12145 496.45 559.16008 497 559.5 C 497.55 559.83992 498 561.66605 498 563.55859 C 498 565.45113 498.29 567 498.64453 567 C 500.09322 567 497.93085 553.89906 495.61914 548.67188 C 493.00888 542.76962 487.10456 533.56341 486.38867 534.2793 z M 320.55078 535.20312 C 327.70703 535.20312 333.73828 537.51562 338.64453 542.14062 C 344.20703 547.35938 346.98828 553.95312 346.98828 561.92188 C 346.98828 569.89062 344.20703 576.48438 338.64453 581.70312 C 333.70703 586.32812 327.67578 588.64062 320.55078 588.64062 C 313.42578 588.64062 307.39453 586.32812 302.45703 581.70312 C 296.89453 576.48438 294.11328 569.89062 294.11328 561.92188 C 294.11328 553.95312 296.89453 547.35938 302.45703 542.14062 C 307.39453 537.51562 313.42578 535.20312 320.55078 535.20312 z M 382.80078 535.20312 C 389.95703 535.20312 395.98828 537.51562 400.89453 542.14062 C 406.45703 547.35938 409.23828 553.95312 409.23828 561.92188 C 409.23828 569.89062 406.45703 576.48438 400.89453 581.70312 C 395.95703 586.32812 389.92578 588.64062 382.80078 588.64062 C 375.67578 588.64062 369.64453 586.32812 364.70703 581.70312 C 359.14453 576.48438 356.36328 569.89062 356.36328 561.92188 C 356.36328 553.95312 359.14453 547.35938 364.70703 542.14062 C 369.64453 537.51562 375.67578 535.20312 382.80078 535.20312 z M 731.59766 535.20312 C 738.75391 535.20312 744.78516 537.51562 749.69141 542.14062 C 755.25391 547.35938 758.03516 553.95312 758.03516 561.92188 C 758.03516 569.89062 755.25391 576.48438 749.69141 581.70312 C 744.75391 586.32812 738.72266 588.64062 731.59766 588.64062 C 724.47266 588.64062 718.44141 586.32812 713.50391 581.70312 C 707.94141 576.48438 705.16016 569.89062 705.16016 561.92188 C 705.16016 553.95312 707.94141 547.35938 713.50391 542.14062 C 718.44141 537.51562 724.47266 535.20312 731.59766 535.20312 z M 821.03516 535.20312 C 828.16016 535.20312 834.19141 537.51562 839.12891 542.14062 L 836.87891 548.79688 C 834.00391 542.82812 829.73828 539.84375 824.08203 539.84375 C 819.80078 539.84375 815.97266 541.35938 812.59766 544.39062 C 809.22266 547.42188 806.75391 551.3125 805.19141 556.0625 C 804.62891 557.8125 804.19141 559.51562 803.87891 561.17188 L 826.14453 561.17188 C 828.98828 561.17188 831.42578 559.4375 833.45703 555.96875 L 834.44141 555.96875 L 832.19141 562.76562 C 831.44141 565.07812 829.42578 566.23438 826.14453 566.23438 L 803.41016 566.23438 C 803.41016 569.92188 804.34766 573.45312 806.22266 576.82812 C 808.87891 581.60938 812.80078 584 817.98828 584 C 822.73828 584 826.75391 582.23438 830.03516 578.70312 L 839.12891 581.70312 C 834.22266 586.32812 828.19141 588.64062 821.03516 588.64062 C 813.91016 588.64062 807.87891 586.32812 802.94141 581.70312 C 797.37891 576.48438 794.59766 569.89062 794.59766 561.92188 C 794.59766 553.95312 797.37891 547.35938 802.94141 542.14062 C 807.87891 537.51562 813.91016 535.20312 821.03516 535.20312 z M 589.75977 538.42578 C 588.65351 537.31953 581.96203 552.555 580.50391 559.5 C 578.64867 568.33713 578.6496 578.50284 580.50781 597.5 C 581.31479 605.75 581.98128 617.13863 581.98828 622.80859 C 581.99502 628.47855 582.38201 632.8808 582.84961 632.5918 C 583.31721 632.30281 584.2733 628.06466 584.97461 623.17188 C 586.21862 614.49283 586.0667 601.13962 584.39062 572.13477 C 583.63406 559.04211 585.0354 550.17245 589.26953 541.25195 C 589.8565 540.01528 590.07684 538.74285 589.75977 538.42578 z M 323.59766 539.84375 C 319.47266 539.84375 315.62891 541.375 312.06641 544.4375 C 308.56641 547.4375 306.03516 551.3125 304.47266 556.0625 C 303.44141 559.21875 302.92578 562.59375 302.92578 566.1875 C 302.92578 570.1875 303.78516 573.73438 305.50391 576.82812 C 308.09766 581.60938 312.09766 584 317.50391 584 C 321.62891 584 325.47266 582.46875 329.03516 579.40625 C 332.53516 576.40625 335.06641 572.53125 336.62891 567.78125 C 337.66016 564.625 338.17578 561.25 338.17578 557.65625 C 338.17578 553.65625 337.31641 550.10938 335.59766 547.01562 C 333.00391 542.23438 329.00391 539.84375 323.59766 539.84375 z M 385.84766 539.84375 C 381.72266 539.84375 377.87891 541.375 374.31641 544.4375 C 370.81641 547.4375 368.28516 551.3125 366.72266 556.0625 C 365.69141 559.21875 365.17578 562.59375 365.17578 566.1875 C 365.17578 570.1875 366.03516 573.73438 367.75391 576.82812 C 370.34766 581.60938 374.34766 584 379.75391 584 C 383.87891 584 387.72266 582.46875 391.28516 579.40625 C 394.78516 576.40625 397.31641 572.53125 398.87891 567.78125 C 399.91016 564.625 400.42578 561.25 400.42578 557.65625 C 400.42578 553.65625 399.56641 550.10938 397.84766 547.01562 C 395.25391 542.23438 391.25391 539.84375 385.84766 539.84375 z M 734.64453 539.84375 C 730.51953 539.84375 726.67578 541.375 723.11328 544.4375 C 719.61328 547.4375 717.08203 551.3125 715.51953 556.0625 C 714.48828 559.21875 713.97266 562.59375 713.97266 566.1875 C 713.97266 570.1875 714.83203 573.73438 716.55078 576.82812 C 719.14453 581.60938 723.14453 584 728.55078 584 C 732.67578 584 736.51953 582.46875 740.08203 579.40625 C 743.58203 576.40625 746.11328 572.53125 747.67578 567.78125 C 748.70703 564.625 749.22266 561.25 749.22266 557.65625 C 749.22266 553.65625 748.36328 550.10938 746.64453 547.01562 C 744.05078 542.23438 740.05078 539.84375 734.64453 539.84375 z M 165.83789 553.99805 C 168.29672 554.16598 170 554.68881 170 555.5 C 170 556.69894 168.50613 557 162.55859 557 C 154.78435 557 151.79977 555.68927 157.14062 554.62109 C 160.16409 554.0164 163.37906 553.83011 165.83789 553.99805 z M 908.32812 555.09375 C 910.59928 555.00653 914.08482 555.06368 918.93945 555.25586 C 932.82247 555.80545 935.55074 556.29871 934.45703 558.06836 C 933.9335 558.91546 919.57216 559.21039 916 558.44727 C 915.175 558.27103 912.3625 557.8456 909.75 557.50195 C 907.1375 557.1583 905 556.38894 905 555.79102 C 905 555.41241 906.05698 555.18097 908.32812 555.09375 z M 540.45312 562.73633 L 534.21875 564.77539 L 534.45312 565.57227 C 535 565.43164 535.57031 565.36133 536.16406 565.36133 C 537.13281 565.36133 537.86719 565.7207 538.36719 566.43945 C 544.44531 575.1582 549.22656 585.35352 552.71094 597.02539 C 553.00781 598.00977 553.67969 598.68945 554.72656 599.06445 L 558.07812 597.96289 C 554.15625 584.88477 549.125 573.80664 542.98438 564.72852 C 542.32812 563.77539 541.48439 563.11133 540.45312 562.73633 z M 538.74219 572.3457 C 529.16406 578.7832 524.375 584.68164 524.375 590.04102 C 524.375 595.74414 528.92189 598.5957 538.01562 598.5957 L 538.01562 597.89258 C 532.40625 596.64258 529.60156 593.8457 529.60156 589.50195 C 529.60156 585.51758 532.78906 579.98633 539.16406 572.9082 L 538.74219 572.3457 z M 569.9375 572.3457 C 567.09375 572.3457 564.82813 572.98633 563.14062 574.26758 C 561.5 575.50195 560.67969 577.0957 560.67969 579.04883 C 560.67969 580.92383 561.5 582.49414 563.14062 583.75977 C 564.67188 584.94727 566.73438 585.54102 569.32812 585.54102 C 570.85938 585.54102 572.03125 585.87695 572.84375 586.54883 C 573.73438 587.2832 574.17969 588.25977 574.17969 589.47852 C 574.17969 590.44727 573.97656 591.4082 573.57031 592.36133 C 573.00781 593.68945 572.25 594.69727 571.29688 595.38477 C 570.09375 596.25977 568.58594 596.69727 566.77344 596.69727 C 564.16406 596.69727 562.3125 595.32227 561.21875 592.57227 L 559.95312 596.32227 C 562.15625 598.15039 564.75781 599.06445 567.75781 599.06445 C 570.82031 599.06445 573.51562 598.18164 575.84375 596.41602 C 577.92188 594.83789 578.96094 592.82227 578.96094 590.36914 C 578.96094 588.11914 578.01562 586.2832 576.125 584.86133 C 574.48438 583.62695 572.25781 583.00977 569.44531 583.00977 C 567.83594 583.00977 566.69531 582.67383 566.02344 582.00195 C 565.41406 581.39258 565.10938 580.61133 565.10938 579.6582 C 565.10938 578.67383 565.35938 577.76758 565.85938 576.93945 C 566.32812 576.1582 567.03125 575.55664 567.96875 575.13477 C 568.875 574.72852 569.85937 574.52539 570.92188 574.52539 C 572.96875 574.52539 574.51562 575.5957 575.5625 577.73633 L 576.75781 574.2207 C 574.78906 572.9707 572.51562 572.3457 569.9375 572.3457 z M 838.75 591.50391 C 846.40255 591.60539 846.33292 591.63619 847.63281 594.47461 L 847.5 601.21484 L 715 601.60742 C 672.925 601.82356 635.98852 602.21009 632.91797 602.4668 C 626.30668 603.01953 625 602.0863 625 596.80078 C 625 594.71078 625.1125 592.97351 625.25 592.94141 C 625.3875 592.90927 660.6 592.67213 703.5 592.41406 C 746.4 592.156 838.0625 591.74645 838.75 591.50391 z M 461.77344 593 L 462.25391 596.25 C 462.51912 598.0375 462.52286 600.0625 462.26172 600.75 C 461.88596 601.73925 442.77033 601.96295 370.64258 601.82031 C 320.51393 601.72118 277.25 601.51207 274.5 601.35742 C 262.63044 600.6899 237.1418 598.84664 233.12891 598.36523 C 225.86715 597.49407 229.82851 595.75722 242.23438 594.37305 C 250.52388 593.44816 281.00779 593.10149 357.63672 593.05859 L 461.77344 593 z M 568.57422 604.5 L 567.91992 619 C 567.60302 626.97685 570.27276 640 566.68359 640 C 563.09442 640 566.35482 645.6 566.66016 644.5 C 566.96549 643.4 567.63936 641.97607 568.1582 641.33594 C 569.71459 639.41574 570.31611 627.04156 569.41797 615.41797 L 568.57422 604.5 z M 503.47266 630.11133 C 503.34344 629.95754 503.18577 630.06769 503 630.5 C 502.52731 631.6 502.10901 634.27256 502.07031 636.43945 C 501.95876 642.69209 498.17932 662.93253 496.83984 664.44922 C 496.37839 664.97172 496.03818 666.54672 496.08398 667.94922 C 496.22634 672.30459 500.87484 661.15817 502.53516 652.48047 C 503.92522 645.21527 504.37718 631.18783 503.47266 630.11133 z M 468.29492 673.02539 C 469.73835 673.12594 470.98585 673.55931 470.96875 674.25 C 470.91534 676.40903 462.91512 681.63763 451.5 686.97461 C 439.61492 692.53131 435.57227 694.61535 421 702.69727 C 394.02045 717.66039 370.66321 728.07442 353.25 732.90234 C 342.14041 735.98254 353.30233 736.98651 370.87891 734.48828 C 381.83227 732.93143 400.15697 727.15806 412.63477 721.33203 C 420.82708 717.50694 423.35553 717.07943 419.90234 720.10547 C 413.61461 725.61543 397.45522 735.43454 385.37305 741.08594 C 376.51972 745.22707 375.60484 745.60952 369 747.93164 C 364.64795 749.46172 340.41598 750.17583 333 748.99219 C 322.56718 747.32704 312.21087 743.72169 299.5 737.33008 C 292.01889 733.56824 291.20813 732.83775 287 726.07227 C 280.64345 715.85273 275.28935 713.42776 270.49805 718.59766 C 267.91451 721.38534 265.81091 727.33361 263.48047 738.44727 C 263.00407 740.71917 262.65322 741.06312 261.94727 739.94727 C 259.80881 736.56709 261.79276 707.49147 264.4375 703.45508 C 266.74491 699.93353 271.5801 697.80422 278.5332 697.24609 C 287.31699 696.54101 292.3815 699.00276 298.63672 707.01953 C 309.35386 720.75478 314.4349 724.17871 324.0332 724.13281 C 337.18346 724.06992 354.20122 719.2669 383.06055 707.47461 C 391.71529 703.93817 400.96638 700.30883 403.61914 699.4082 C 406.2719 698.50756 410.70496 696.74588 413.4707 695.49414 C 416.23645 694.24241 424.575 690.63617 432 687.48047 C 439.425 684.32477 447.75 680.74001 450.5 679.51367 C 453.25 678.28734 457.3 676.67787 459.5 675.9375 C 461.7 675.19714 463.92672 674.23264 464.44922 673.79492 C 465.21169 673.15617 466.85149 672.92484 468.29492 673.02539 z M 595.2168 681.16797 C 594.21096 686.2085 607.77098 704.68503 620.51758 715.64062 C 632.00809 725.51666 645.60908 733.02904 659 736.89453 C 661.475 737.60897 664.175 738.57263 665 739.03711 C 665.825 739.50158 667.4 739.89666 668.5 739.91406 C 669.6 739.93145 666.675 738.03933 662 735.70898 C 652.09123 730.76973 640.97673 724.33965 632.5 718.64258 C 624.86874 713.51375 604.66469 693.31709 599.46875 685.62305 C 597.28574 682.39049 595.37305 680.38496 595.2168 681.16797 z M 813.3457 692.00586 C 812.24807 692.01235 808.12554 705.18356 807.40039 711 C 806.59206 717.48354 808.40603 729.88947 810.99609 735.5918 C 813.81802 741.80464 814.66928 739.84939 812.99805 730.99219 C 811.7949 724.61574 812.03003 711.98282 813.625 697.25 C 813.9376 694.3625 813.81129 692.00286 813.3457 692.00586 z M 784.62305 695 C 782.68319 695 777.0263 708.97875 777.00586 713.82227 C 777.00128 714.90721 777.23996 714.90263 778.3418 713.80078 C 780.32823 711.81436 781.55838 709.21773 783.89648 702.08398 C 786.38984 694.47648 786.33717 695 784.62305 695 z M 278.47656 701.37695 C 275.73466 701.62771 273.0422 702.39743 271.18359 703.61523 C 268.1289 705.61675 269.46666 706.61742 275.50195 706.8457 C 282.29548 707.10266 284.56679 708.43298 289.72461 715.16797 C 292.35129 718.59786 296.01569 723.11205 297.86719 725.20117 C 302.35186 730.2614 303.73855 730.02542 300.51758 724.75 C 299.09038 722.4125 296.04583 716.72375 293.75 712.10938 C 290.27766 705.13031 288.9848 703.4733 286.06641 702.25391 C 284.00893 701.39424 281.21847 701.1262 278.47656 701.37695 z M 680.61914 711.02148 C 678.54951 711.04319 678.55579 711.08619 680.86914 712.86523 C 682.17189 713.86708 688.69689 717.44987 695.36914 720.82617 C 707.4717 726.95032 717.56294 730.07922 731.42969 732.00391 C 739.03492 733.05951 748.01757 732.39631 754.46875 730.30469 C 761.79833 727.92827 774.07321 715 769 715 C 768.45 715 768 715.35527 768 715.78906 C 768 717.00073 758.24856 722.55533 751.07812 725.42773 C 738.61028 730.42224 723.97143 727.94685 694.61914 715.88281 C 688.08464 713.19708 681.78464 711.00928 680.61914 711.02148 z M 671.44531 770.22266 C 670.83323 770.83474 674.30322 773.13937 678.75 775.07422 C 680.5375 775.85198 682 776.8284 682 777.24414 C 682 777.65988 682.52523 778 683.16797 778 C 684.45907 778 713.74494 792.66241 724 798.44336 C 732.07758 802.99683 746.60819 810 747.97852 810 C 748.54043 810 749 810.45 749 811 C 749 811.55 749.7875 811.99075 750.75 811.97852 C 753.42313 811.94456 749.08926 808.91056 738.5 803.40234 C 733.55 800.8275 729.05 798.39594 728.5 798 C 727.30138 797.13714 712.93563 789.35093 708 786.88867 C 698.08064 781.94016 691.6618 778.95604 683.5 775.50391 C 678.55 773.41025 673.92736 771.25241 673.22656 770.70703 C 672.52577 770.16166 671.72418 769.94379 671.44531 770.22266 z M 546.20312 785 C 548.83327 785 565.88245 794.82695 575.98828 802.16797 C 595.07208 816.03073 605.55546 836.66034 606.71875 862.64062 C 607.36496 877.07271 605.5532 884.74154 599.16016 894.63281 C 588.65559 910.88542 565.22339 927.70209 543 934.93945 C 536.75826 936.97215 519 938.98385 519 937.6582 C 519 937.3056 520.50346 935.04702 522.3418 932.63867 C 529.81282 922.85109 532.81559 903.66758 529.54883 886.59375 C 527.30788 874.88134 525.03596 870.87462 514.42578 859.92383 L 504.80469 849.99414 L 505.52539 843.74609 C 506.45487 835.68352 509.79321 825.87323 514.52148 817.31055 C 518.97884 809.23848 542.74556 785 546.20312 785 z M 629.17383 798.07031 C 629.00309 798.07816 629 798.58204 629 799.58984 C 629 800.70892 629.89985 803.48662 631 805.76367 C 636.23055 816.58966 638.96132 833.77166 638.98242 856 C 639.00916 884.11542 633.84615 902.2253 620.79102 919.80664 C 616.30067 925.8538 604.66613 937.85082 598 943.30859 C 593.01266 947.39188 593.75488 948.11398 599.65625 944.91992 C 614.91033 936.66377 631.81152 915.5118 638.35352 896.49219 C 642.89655 883.28421 643.50257 878.58902 643.45117 857 C 643.38168 827.81566 640.20901 813.89283 630.35352 799.52734 C 629.68325 798.55035 629.34457 798.06246 629.17383 798.07031 z M 324 810.82812 C 324 809.15028 314.92074 818.14368 309.69336 825 C 307.38704 828.025 305.1625 830.65065 304.75 830.83398 C 304.3375 831.01732 304 831.57982 304 832.08398 C 304 833.86112 305.5324 832.91783 308.5 829.31445 C 310.15 827.31095 314.3125 822.61284 317.75 818.875 C 321.1875 815.13715 324 811.51673 324 810.82812 z M 509.25 973.31055 C 508.2875 973.56208 509.075 973.76758 511 973.76758 C 512.925 973.76758 513.7125 973.56208 512.75 973.31055 C 511.7875 973.05903 510.2125 973.05903 509.25 973.31055 z M 515.76172 975.29297 C 514.51781 975.53216 515.3 975.73695 517.5 975.74805 C 519.69996 975.75915 520.71781 975.56279 519.76172 975.3125 C 518.80563 975.06219 517.00563 975.05378 515.76172 975.29297 z M 524.69141 977.09961 L 520.5 977.20117 L 524.5 978.17773 C 526.7 978.71535 530.525 979.5185 533 979.96094 C 538.8686 981.01006 539.14792 981.01072 541.5 980 C 542.89451 979.40076 541.47391 979.11931 536.80859 979.07031 C 533.12855 979.03165 529.83992 978.55 529.5 978 C 529.16008 977.45 526.99645 977.04431 524.69141 977.09961 z " />
</svg>
