<?xml version="1.0" encoding="UTF-8" standalone="no"?>
<!-- Created with Inkscape (http://www.inkscape.org/) -->

<svg
   width="184.38857mm"
   height="205.93166mm"
   viewBox="0 0 184.38856 205.93164"
   version="1.1"
   id="svg70098"
   inkscape:version="1.1.2 (0a00cf5339, 2022-02-04)"
   sodipodi:docname="RootAsRole_stroke.svg"
   inkscape:export-filename="/home/ebilloir/Images/RootAsRole_stroke.png"
   inkscape:export-xdpi="96"
   inkscape:export-ydpi="96"
   xmlns:inkscape="http://www.inkscape.org/namespaces/inkscape"
   xmlns:sodipodi="http://sodipodi.sourceforge.net/DTD/sodipodi-0.dtd"
   xmlns="http://www.w3.org/2000/svg"
   xmlns:svg="http://www.w3.org/2000/svg">
  <sodipodi:namedview
     id="namedview70100"
     pagecolor="#ffffff"
     bordercolor="#666666"
     borderopacity="1.0"
     inkscape:pageshadow="2"
     inkscape:pageopacity="0.0"
     inkscape:pagecheckerboard="0"
     inkscape:document-units="mm"
     showgrid="false"
     inkscape:snap-global="false"
     showguides="true"
     inkscape:guide-bbox="true"
     inkscape:zoom="1.2810466"
     inkscape:cx="371.9615"
     inkscape:cy="581.94606"
     inkscape:window-width="1920"
     inkscape:window-height="1066"
     inkscape:window-x="0"
     inkscape:window-y="0"
     inkscape:window-maximized="1"
     inkscape:current-layer="layer1"
     fit-margin-top="0"
     fit-margin-left="0"
     fit-margin-right="0"
     fit-margin-bottom="0">
    <sodipodi:guide
       position="105.80355,-25.865463"
       orientation="0,-1"
       id="guide131720" />
    <sodipodi:guide
       position="89.798562,62.989186"
       orientation="1,0"
       id="guide135846" />
    <sodipodi:guide
       position="188.54253,-42.309346"
       orientation="0,-1"
       id="guide136386" />
  </sodipodi:namedview>
  <defs
     id="defs70095">
    <rect
       x="11.919229"
       y="701.76831"
       width="1199.9955"
       height="281.67157"
       id="rect180664" />
    <rect
       x="14.428994"
       y="681.22443"
       width="658.98157"
       height="107.92853"
       id="rect176478" />
    <marker
       style="overflow:visible"
       id="Arrow1Lstart"
       refX="0"
       refY="0"
       orient="auto"
       inkscape:stockid="Arrow1Lstart"
       inkscape:isstock="true">
      <path
         transform="matrix(0.8,0,0,0.8,10,0)"
         style="fill:context-stroke;fill-rule:evenodd;stroke:context-stroke;stroke-width:1pt"
         d="M 0,0 5,-5 -12.5,0 5,5 Z"
         id="path147488" />
    </marker>
  </defs>
  <g
     inkscape:label="Calque 1"
     inkscape:groupmode="layer"
     id="layer1"
     transform="translate(-0.23214525,0.39677375)">
    <path
       d="M 89.890617,42.825836 C 76.058331,59.375695 77.112614,58.421375 74.025953,57.77531 70.039584,56.940931 65.037676,43.807258 59.703314,51.756039 c -1.72302,2.567488 10.085784,9.657893 14.642517,15.932362 l 0.558105,0.157096 c 5.28321,-4.801526 9.948799,-10.646497 15.06988,-15.66106 18.285674,15.254391 12.731174,20.765487 24.128764,7.219714 l 7.80675,-8.297166 c 5.14297,-3.55732 0.35747,-10.1639 -4.5222,-4.953704 -6.28969,6.095127 -8.02683,15.671176 -16.01918,7.950935 -11.463889,-11.073603 0.73133,0.877973 -11.477333,-11.27838 z"
       style="display:inline;mix-blend-mode:normal;fill:#142c38;fill-opacity:1;stroke:#000000;stroke-width:0.47625;stroke-linecap:round;stroke-linejoin:round;stroke-miterlimit:4;stroke-dasharray:none;stroke-opacity:1;paint-order:normal"
       id="path167374"
       sodipodi:nodetypes="cssccccccsc" />
    <g
       aria-label="RootAsRole"
       transform="matrix(0.26458333,0,0,0.26458333,-2.1895643,-12.105869)"
       id="text180662"
       style="font-weight:bold;font-size:120px;line-height:1.25;font-family:'Posterama Text';-inkscape-font-specification:'Posterama Text, Bold';white-space:pre;shape-inside:url(#rect180664);fill:#6d3d2e"
       inkscape:label="text180662">
      <path
         d="m 24.039922,729.36758 c -2.04,0 -3.12,0.84 -3.12,3.12 v 77.76 c 0,2.04 1.08,3.12 3.12,3.12 h 14.52 c 2.28,0 3.24,-0.84 3.24,-3.12 v -22.2 c 0,-1.44 0.36,-1.8 1.8,-1.8 h 8.04 c 1.56,0 2.28,0.36 3.12,1.68 l 13.56,21.84 c 1.8,2.76 3.24,3.6 6.6,3.6 h 16.2 c 1.8,0 2.76,-0.6 2.76,-1.68 0,-0.6 -0.24,-1.32 -0.84,-2.16 l -18.6,-28.2 c 9.12,-4.68 14.52,-12.84 14.52,-24.36 0,-18.24 -11.88,-27.6 -35.4,-27.6 z m 43.32,28.68 c 0,6.72 -4.68,9.96 -14.64,9.96 h -9.12 c -1.44,0 -1.8,-0.48 -1.8,-1.92 v -15.72 c 0,-1.32 0.36,-1.8 1.8,-1.8 h 9.12 c 9.96,0 14.64,2.76 14.64,9.48 z"
         id="path79852" />
      <path
         d="m 129.39973,753.12758 c -19.08,0 -32.519997,12.96 -32.519997,31.08 0,17.76 13.319997,30.6 32.399997,30.6 19.2,0 32.76,-12.96 32.76,-30.84 0,-17.88 -13.56,-30.84 -32.64,-30.84 z m 12,30.84 c 0,7.44 -5.64,12.72 -12.12,12.72 -6.6,0 -11.76,-5.28 -11.76,-12.72 0,-7.44 5.16,-12.72 11.76,-12.72 6.48,0 12.12,5.28 12.12,12.72 z"
         id="path79854" />
      <path
         d="m 202.95961,753.12758 c -19.08,0 -32.52,12.96 -32.52,31.08 0,17.76 13.32,30.6 32.4,30.6 19.2,0 32.76,-12.96 32.76,-30.84 0,-17.88 -13.56,-30.84 -32.64,-30.84 z m 12,30.84 c 0,7.44 -5.64,12.72 -12.12,12.72 -6.6,0 -11.76,-5.28 -11.76,-12.72 0,-7.44 5.16,-12.72 11.76,-12.72 6.48,0 12.12,5.28 12.12,12.72 z"
         id="path79856" />
      <path
         d="m 244.59948,772.20758 h 8.4 v 38.04 c 0,2.04 1.08,3.12 3.12,3.12 h 13.56 c 2.28,0 3.24,-0.84 3.24,-3.12 v -38.04 h 8.52 c 2.28,0 3.12,-1.08 3.12,-3.12 v -11.28 c 0,-2.28 -0.84,-3.24 -3.12,-3.24 h -8.52 v -13.68 c 0,-2.28 -0.96,-3.12 -3.24,-3.12 h -13.56 c -2.04,0 -3.12,0.84 -3.12,3.12 v 13.68 h -8.4 c -2.28,0 -3.12,0.96 -3.12,3.24 v 11.28 c 0,2.04 1.08,3.12 3.12,3.12 z"
         id="path79858" />
      <path
         d="m 330.63943,727.56758 c -2.4,0 -3.96,1.56 -6.36,6.36 l -37.56,75.48 c -0.36,0.72 -0.6,1.44 -0.6,2.16 0,1.2 0.96,1.8 2.76,1.8 h 14.64 c 2.88,0 3.96,-0.6 5.04,-3.12 l 4.56,-9.96 c 0.6,-1.32 0.96,-1.56 2.28,-1.56 h 29.76 c 1.32,0 1.68,0.24 2.28,1.56 l 4.68,9.96 c 1.08,2.52 2.16,3.12 5.16,3.12 h 15.24 c 1.8,0 2.64,-0.6 2.64,-1.8 0,-0.72 -0.24,-1.44 -0.6,-2.16 l -37.56,-75.48 c -2.4,-4.8 -4.08,-6.36 -6.36,-6.36 z m 7.68,53.16 c 0,0.6 -0.36,0.84 -1.32,0.84 h -13.56 c -0.84,0 -1.32,-0.24 -1.32,-0.84 0,-0.36 0.12,-0.6 0.36,-0.96 l 7.8,-16.56 7.8,16.56 c 0.12,0.24 0.24,0.6 0.24,0.96 z"
         id="path79860" />
      <path
         d="m 387.39916,794.04758 c -0.6,0 -1.08,0.36 -1.56,1.2 l -5.4,8.64 c -0.36,0.84 -0.6,1.32 -0.6,1.68 0,0.84 0.36,1.32 1.44,1.92 6.84,4.92 15.36,7.32 25.32,7.32 16.8,0 25.32,-7.32 25.32,-19.32 0,-10.68 -5.76,-15.24 -19.92,-18.96 -7.68,-2.04 -10.44,-3 -10.44,-5.4 0,-2.16 1.68,-3.24 5.04,-3.24 4.2,0 9.24,1.68 15.12,5.04 0.72,0.48 1.32,0.72 1.92,0.72 0.6,0 1.2,-0.36 1.68,-1.2 l 5.16,-8.76 c 0.36,-0.6 0.6,-1.2 0.6,-1.68 0,-0.6 -0.36,-1.2 -1.08,-1.68 -6.24,-4.8 -14.4,-7.2 -24.48,-7.2 -13.68,0 -24.12,6.84 -24.12,19.2 0,9.72 6.24,15.24 19.08,18.96 l 3.48,0.96 c 5.52,1.56 7.8,2.16 7.8,4.44 0,2.4 -1.56,3.36 -5.76,3.36 -4.92,0 -11.76,-2.28 -16.56,-5.28 -0.84,-0.48 -1.44,-0.72 -2.04,-0.72 z"
         id="path79862" />
      <path
         d="m 447.99912,729.36758 c -2.04,0 -3.12,0.84 -3.12,3.12 v 77.76 c 0,2.04 1.08,3.12 3.12,3.12 h 14.52 c 2.28,0 3.24,-0.84 3.24,-3.12 v -22.2 c 0,-1.44 0.36,-1.8 1.8,-1.8 h 8.04 c 1.56,0 2.28,0.36 3.12,1.68 l 13.56,21.84 c 1.8,2.76 3.24,3.6 6.6,3.6 h 16.2 c 1.8,0 2.76,-0.6 2.76,-1.68 0,-0.6 -0.24,-1.32 -0.84,-2.16 l -18.6,-28.2 c 9.12,-4.68 14.52,-12.84 14.52,-24.36 0,-18.24 -11.88,-27.6 -35.4,-27.6 z m 43.32,28.68 c 0,6.72 -4.68,9.96 -14.64,9.96 h -9.12 c -1.44,0 -1.8,-0.48 -1.8,-1.92 v -15.72 c 0,-1.32 0.36,-1.8 1.8,-1.8 h 9.12 c 9.96,0 14.64,2.76 14.64,9.48 z"
         id="path79864" />
      <path
         d="m 553.35892,753.12758 c -19.08,0 -32.52,12.96 -32.52,31.08 0,17.76 13.32,30.6 32.4,30.6 19.2,0 32.76,-12.96 32.76,-30.84 0,-17.88 -13.56,-30.84 -32.64,-30.84 z m 12,30.84 c 0,7.44 -5.64,12.72 -12.12,12.72 -6.6,0 -11.76,-5.28 -11.76,-12.72 0,-7.44 5.16,-12.72 11.76,-12.72 6.48,0 12.12,5.28 12.12,12.72 z"
         id="path79866" />
      <path
         d="m 601.11879,723.36758 c -2.04,0 -3.12,0.84 -3.12,3.12 v 83.76 c 0,2.04 1.08,3.12 3.12,3.12 h 13.8 c 2.28,0 3.24,-0.84 3.24,-3.12 v -83.76 c 0,-2.28 -0.96,-3.12 -3.24,-3.12 z"
         id="path79868" />
      <path
         d="m 687.87862,804.96758 c 0,-0.6 -0.24,-1.2 -0.6,-2.04 l -4.44,-7.8 c -0.6,-0.96 -1.2,-1.44 -1.92,-1.44 -0.6,0 -1.56,0.36 -2.64,1.08 -4.8,2.88 -9.36,4.44 -15.24,4.44 -6.6,0 -11.52,-3.72 -12.48,-10.08 h 38.16 c 1.44,0 2.04,-0.6 2.04,-2.16 v -3.24 c 0,-18 -12,-30.6 -30,-30.6 -18.12,0 -30.6,12.96 -30.6,31.08 0,17.88 12.12,30.6 30.84,30.6 10.56,0 18.24,-2.28 25.08,-7.2 1.2,-0.84 1.8,-1.8 1.8,-2.64 z m -27.12,-37.44 c 5.64,0 9,3.6 9.48,9 h -19.44 c 1.44,-5.88 5.04,-9 9.96,-9 z"
         id="path79870" />
    </g>
    <g
       id="g1738"
       style="display:inline;stroke:#000000;stroke-opacity:1"
       transform="matrix(0.26458333,0,0,0.26458333,-38.164682,27.92815)"
       inkscape:label="golden">
      <path
         d="m 483.2294,-78.503677 c -14.01637,-0.54645 -28.26264,8.15795 -15.19726,27.68165 9.60276,1.06738 19.40226,1.01377 29.01953,0.14257 13.98136,-17.47986 0.19411,-27.27776 -13.82227,-27.82422 z m 170.50587,44.8125 c -12.1935,-0.54238 -24.302,7.30443 -16.2246,24.3242203 11.1475,13.2045799 25.0648,6.50943 32.957,1.6836 7.7401,-16.5341003 -4.5389,-25.4654303 -16.7324,-26.0078203 z m -336.83009,2.57618 c -17.97385,-2.11402 -36.24931,24.9510603 -12.5,30.18750019 l 6.01758,1.32812 c 16.0987,3.54957001 30.4274,-6.84434989 18.35742,-24.76172019 -3.59533,-4.22249 -7.72718,-6.26605 -11.875,-6.7539 z m 169.70313,8.25195 c -38.59282,0.73033 -78.04742,92.625489 -96.53125,82.26562 -16.45993,-10.68286 -46.34324,-47.37884 -57.87695,-30.10742 18.51533,56.81196 35.73527,114.107257 47.76562,172.691407 71.37468,-0.23674 142.75032,-0.47226 214.125,-0.70899 10.81975,-61.17207 25.67864,-124.865437 38.23044,-177.144527 -21.8833,-9.12398 -39.55314,31.93365 -62.05271,32.52539 -24.12394,-25.65494 -47.32707,-52.2478098 -72.25195,-77.10351 -4.05771,-1.53269 -7.84731,-2.29533 -11.4082,-2.41797 z m 0.84083,79.859326 c 15.99424,-0.10213 27.35474,30.473364 42.57909,39.937544 22.15744,35.678207 41.09488,-11.6163 57.91992,-28.74023 18.23607,-18.56003 36.53172,5.27767 17.09375,18.72266 l -29.50781,31.359367 c -13.20737,14.03707 -29.40714,45.0539 -44.82227,15.83399 -15.8836,-11.84274 -31.05106,-40.451857 -47.66211,-43.123047 -19.35527,18.952677 -35.69797,41.045857 -55.66601,59.193357 l -2.10938,-0.59375 c -16.49082,-23.13938 -47.62915,-38.02809 -55.34375,-60.216797 14.12767,-22.63413 37.78463,16.780997 53.37956,25.547217 30.1231,5.16237 52.64813,-38.01993 64.13901,-57.920311 z"
         style="display:inline;mix-blend-mode:normal;fill:#fbc888;fill-opacity:1;stroke:none;stroke-width:3;stroke-linecap:round;stroke-linejoin:round;stroke-miterlimit:4;stroke-dasharray:none;stroke-opacity:1;paint-order:normal"
         id="path146741"
         inkscape:label="backgroundy"
         sodipodi:nodetypes="sccssccsscccscccccccccccsccccccccc" />
      <path
         d="m 483.22903,-78.503137 c -3.04005,-0.11852 -6.04361,0.28489 -8.82422,1.05274 17.07982,0.682258 14.92596,35.355401 -8.34765,23.36523 0.57758,1.05545 1.22022,2.13639 1.97461,3.26368 9.60276,1.06738 19.40226,1.01377 29.01953,0.14257 13.98136,-17.47986 0.19411,-27.27776 -13.82227,-27.82422 z m 170.50586,44.8125 c -2.06876,-0.092 -4.09481,0.14823 -6.06055,0.54297 6.7628,2.97973 11.35623,14.46703 4.22071,23.04492 -3.09081,4.6585203 -7.03297,5.5990603 -10.55469,4.4101603 10.35462,8.0229799 22.11612,2.29668 29.12695,-1.99023 7.74008,-16.5341003 -4.53894,-25.4654303 -16.73242,-26.0078203 z m -336.83008,2.57618 c -3.20559,-0.37703 -6.39025,0.25156 -9.375,1.4414 0.67106,0.19982 1.30303,0.31679 2.02149,0.61719 9.38532,3.92413 10.07214,22.5228003 -2.69141,28.66992019 l 3.5625,0.78711 c 16.0987,3.54957001 30.4274,-6.84434989 18.35742,-24.76172019 -3.59533,-4.22249 -7.72718,-6.26605 -11.875,-6.7539 z m 169.70313,8.25195 c -3.12756,-0.10772 -6.05189,0.35245 -8.85547,1.14062 13.85352,17.6428077 6.76461,55.508449 6.16905,78.440778 12.03884,9.418239 28.5149,35.460042 43.18308,44.578479 22.15744,35.67821 46.40716,-11.912797 63.2322,-29.036727 18.23607,-18.56003 22.00788,-3.849337 14.70473,14.65615 -34.46779,23.349027 -60.1787,72.044837 -74.33008,47.193357 -15.33525,-11.4339 -30.00734,-38.424707 -45.95117,-42.683597 -4.28728,25.026687 5.80782,101.364737 -12.48437,110.255857 40.60463,-0.13468 81.20981,-0.26962 121.81445,-0.4043 10.81975,-61.17207 25.67861,-124.865437 38.23047,-177.144527 -21.88332,-9.12398 -39.55317,31.93365 -62.05274,32.52539 -24.12394,-25.65494 -47.32707,-52.2478098 -72.25195,-77.10351 -4.05771,-1.53269 -7.84731,-2.29533 -11.4082,-2.41797 z m -193.42188,12.24414 c 0.15021,1.2276803 0.53116,2.4047703 1.16211,3.5039103 -0.48075,-1.11437 -0.87634,-2.2787 -1.16211,-3.5039103 z"
         style="display:inline;mix-blend-mode:normal;fill:#a1681d;stroke:none;stroke-width:3;stroke-linecap:round;stroke-linejoin:round;stroke-miterlimit:4;stroke-dasharray:none;stroke-opacity:1;paint-order:normal"
         id="path146744"
         sodipodi:nodetypes="sccccssccccsscscccsscccsccccccccsccc"
         inkscape:label="golden" />
      <path
         style="display:inline;mix-blend-mode:normal;fill:#774635;fill-opacity:1;stroke:#000000;stroke-width:3;stroke-linecap:round;stroke-linejoin:round;stroke-miterlimit:4;stroke-dasharray:none;stroke-opacity:1;paint-order:normal"
         d="m 548.03596,226.62254 c 20.48351,-9.48 -12.96602,-4.52581 34.41895,2.13865 10.07705,15.6166 19.41148,21.4727 79.8291,20.88805 53.17508,-0.51457 141.49406,44.69742 166.02123,92.67354 9.58411,42.04992 -40.72729,8.80685 -58.45688,0.41284 -28.98523,-13.72295 -68.85363,-39.28844 -97.45515,-12.55136 -13.82434,11.9047 -52.45671,2.40228 -13.44862,26.19735 45.08069,27.49936 91.77144,62.76803 142.36384,79.10063 13.69229,3.35694 46.60244,26.28722 3.64682,17.8752 -48.50477,-7.18652 -98.55517,-1.69144 -142.7464,-31.6014 C 641.74973,411.53937 628.0978,389.25515 615.82624,412.07509 508.89941,357.68846 499.9358,244.2234 548.03596,222.62254 M 368.56763,414.86818 c -11.53789,-6.11224 -8.75521,-2.71116 -43.86898,-5.95839 -69.66265,51.0927 -160.51104,39.8421 -171.00914,36.79381 20.80675,-19.71498 49.28458,-21.81702 76.70042,-34.65413 42.17941,-29.73338 25.0836,-17.94099 58.40161,-43.75297 51.27752,-19.96024 8.43187,-51.75072 -32.61976,-48.64123 -31.005,7.02633 -77.35631,35.74897 -107.30433,41.2048 -19.32727,-40.73323 90.41615,-84.53136 115.34286,-92.28598 46.66436,-14.51714 46.52941,-13.44342 72.47266,-8.21632 24.43491,4.9232 40.4295,-32.54394 40.4295,-32.54394"
         id="path146747"
         sodipodi:nodetypes="ccscsssssccccccccccssc"
         inkscape:label="root2" />
      <path
         style="display:inline;mix-blend-mode:normal;fill:#6d3d2e;fill-opacity:1;stroke:none;stroke-width:3;stroke-linecap:round;stroke-linejoin:round;stroke-miterlimit:4;stroke-dasharray:none;stroke-opacity:1;paint-order:normal"
         d="m 572.21587,226.42423 c 14.45595,21.36908 43.79425,29.53114 67.6943,27.05177 25.60242,-2.65597 50.02348,1.27118 75.57158,13.65689 32.50423,13.38339 58.30276,25.59604 83.21117,49.5891 24.29512,1.19454 33.05027,57.52767 1.9387,36.68234 -32.5414,-17.94594 -67.45057,-34.81515 -105.09272,-37.76116 -21.23533,9.35968 -49.57108,26.20774 -69.01283,22.63213 -6.74506,-1.71253 23.57563,15.77991 30.21588,22.00307 35.82513,25.89644 71.1874,54.81981 114.83673,66.21345 15.6978,7.59938 36.47336,11.32231 47.09579,25.5059 -54.5012,-5.43043 -112.8099,-6.20861 -160.14125,-37.53603 -31.47126,-11.31645 -51.41289,-43.56359 -84.24095,-49.24377 -53.49551,-15.2207 -72.52848,-89.8585 -37.67285,-131.17295 9.8596,-11.58506 22.22644,-14.53327 35.59645,-7.62074 z m 139.69239,186.66052 c -16.13229,-15.44944 14.63019,17.00289 0,0 z M 443.03133,349.03078 c -13.27151,-13.74049 -39.46256,17.28865 -56.06729,24.46485 -23.62469,16.26039 -48.51929,31.10783 -76.43037,38.46191 -27.79197,12.602 -53.74245,33.915 -85.98369,31.76146 -21.44956,-2.27917 -53.4143,10.85211 -68.12305,0.39106 26.21376,-18.45815 60.63837,-20.09507 87.59301,-37.81077 25.25756,-14.85362 46.54195,-35.22087 70.17343,-52.36789 29.68585,-18.17774 -16.81606,-30.00519 -33.6837,-35.07907 -31.45054,-8.16674 -60.23151,10.78679 -88.72314,20.92653 -15.27522,2.9969 -37.29812,29.67059 -42.54086,3.43789 13.93873,-27.80626 48.0849,-29.28811 69.92155,-50.29843 26.45177,-19.05687 59.46365,-29.74256 93.32252,-29.28937 94.11456,15.16846 65.69344,-70.40377 140.68527,-41.77532 m -38.15624,134.78606 c -2.62468,-2.52375 -1.80111,2.60134 0,0 z"
         id="path146750"
         sodipodi:nodetypes="cssscsssscccccssccccccccccccccc"
         inkscape:label="root1" />
      <path
         style="display:inline;mix-blend-mode:normal;fill:#532f27;fill-opacity:1;stroke:none;stroke-width:2;stroke-linecap:round;stroke-linejoin:round;stroke-miterlimit:4;stroke-dasharray:none;stroke-opacity:1;paint-order:normal"
         d="m 340.38897,398.47021 c 14.2201,-4.31195 61.60175,-46.64224 89.36031,-52.36819 13.03186,-14.6508 -40.56075,-4.08299 -47.35046,9.57469 -27.70637,15.00884 -46.05851,45.26414 -74.86705,55.73105 -16.75458,6.08739 10.96722,-8.98854 -0.26626,0.89793 -9.13439,8.03908 -31.14787,18.80048 -34.17457,18.20462 0.74842,-3.04376 -14.54677,-9.20245 4.67666,-17.74469 46.61564,-34.08312 87.52459,-84.03969 148.41469,-90.96909 -8.69336,-46.49718 -49.77208,-7.60797 -75.10412,2.74671 -18.06708,18.82722 -49.95484,3.87265 -60.83479,-4.51404 -69.14815,-9.37172 45.23179,3.63324 59.94631,-36.67284 6.1849,-18.5165 26.2603,-36.48127 38.65125,-40.09541 -21.61391,-2.61898 1.249,-12.07149 -14.23662,-16.11692 87.05739,-0.1997 -24.96508,-0.54263 87.05739,-0.1997 -2.398,129.75803 -3.45515,131.05812 -93.24392,181.86859 -28.70821,-1.79231 -57.23875,0.76947 -32.54783,-6.74 m 123.39375,-45.37056 c -17.92491,-56.67609 -33.08142,-34.90583 0,0 z M 336.2717,401.12895 c 5.50683,-1.62308 0.99942,1.75023 0,0 z m -5.69878,4.73012 c 7.74545,-1.55624 1.48708,1.6085 0,0 z m 484.01802,-45.64363 c -35.94888,-20.61634 -74.32312,-38.78149 -115.70257,-45.27111 -18.57212,2.69412 -27.30941,18.63396 -47.66497,19.59265 -19.69168,14.27105 -73.65444,-15.14598 -40.06963,-15.59042 16.12208,-7.11686 65.41335,2.39486 43.84808,-25.14548 31.36529,-17.13904 71.98573,-14.35208 99.90053,8.65402 17.25396,-31.06811 42.85643,19.75551 60.28776,31.46369 9.13318,6.15566 21.50776,31.31938 -0.5992,26.29665 z M 541.95556,323.28868 c 61.68482,24.49639 112.22168,69.7579 172.03651,97.57135 -4.92302,-9.13739 -42.13685,-39.36889 -29.90439,-37.58764 35.75709,27.36917 79.01577,40.51192 119.6587,58.42477 20.7254,8.77207 18.66551,14.90181 -2.74887,9.5536 -46.03098,-7.36457 -96.42219,-4.6209 -136.23587,-32.48078 -29.69462,-15.6999 -59.34566,-32.61102 -79.56556,-60.55 -5.06655,-16.10887 -66.17785,-21.34383 -28.24831,-11.10985"
         id="path146753"
         sodipodi:nodetypes="cssssssscccsccccccssssscccsssscccccccc"
         inkscape:label="root0" />
      <path
         id="path146756"
         style="mix-blend-mode:normal;fill:#e3e9ec;fill-opacity:1;stroke:#000000;stroke-width:2;stroke-linecap:round;stroke-linejoin:round;stroke-miterlimit:4;stroke-dasharray:none;stroke-opacity:1;paint-order:normal"
         d="m 482.49719,221.208 c -0.12446,29.5897 -10.02946,160.51598 -5.22671,158.50273 91.93475,-16.58126 110.38724,114.52841 55.67776,125.90413 -17.14137,5.1991 -2.04584,25.79066 9.8511,26.66183 69.82236,-20.77295 65.76113,-126.09991 18.70532,-156.79318 -25.86879,-19.88611 -32.46535,-30.76019 -36.15911,-61.88293 -4.35604,-30.22187 -2.48514,-54.52822 -2.43902,-85.56881 1.99501,-14.6235 -22.98629,-8.29304 -35.0031,-4.03229 -4.71514,-0.0452 -15.99231,-3.89893 -5.40625,-2.79148 z"
         sodipodi:nodetypes="cccccccccc"
         inkscape:label="graybg" />
      <path
         style="display:inline;mix-blend-mode:normal;fill:#bdc3c8;fill-opacity:1;stroke:none;stroke-width:3;stroke-linecap:round;stroke-linejoin:round;stroke-miterlimit:4;stroke-dasharray:none;stroke-opacity:1;paint-order:normal"
         d="m 415.20738,462.43392 c 6.06845,17.93217 98.23769,85.11519 -4.48454,76.64552 -10.0176,-0.82598 -40.91073,-80.55917 -44.05744,-98.44807 -4.07244,-23.15166 102.03066,-88.53052 94.99679,-213.68704 l 22.66076,-1.90653 c 4.22425,44.4436 10.09917,96.22999 -1.78992,135.72235 -11.38949,37.83284 -40.0614,23.07664 -67.32565,101.67377"
         id="path146759"
         sodipodi:nodetypes="cssccsc" />
      <path
         style="display:inline;mix-blend-mode:normal;fill:#532f27;fill-opacity:1;stroke:none;stroke-width:2;stroke-linecap:round;stroke-linejoin:round;stroke-miterlimit:4;stroke-dasharray:none;stroke-opacity:1;paint-order:normal"
         d="m 348.85357,401.25986 c 27.95294,-7.83635 39.9659,-41.34507 68.8204,-48.1798 12.97537,0.55605 29.14207,-35.2648 17.68751,-14.06961 -21.58959,-10.65959 -37.7431,3.09844 -54.86332,15.37649 -21.19592,14.53605 -40.74952,31.35422 -59.0922,49.32685 -15.29334,5.93993 -43.44582,27.62004 -48.33857,26.10342 -15.42555,-18.05166 26.78589,-27.85775 35.6289,-43.57557 32.2326,-27.76168 65.97605,-59.43063 109.6856,-65.93652 18.23959,-14.41734 -18.4561,-38.09728 -31.67453,-18.68909 -135.63584,47.2495 -51.02785,14.72798 -15.03119,-60.82811 25.21563,-56.00095 27.68471,13.28949 44.66606,-3.40124 10.9822,-19.52145 27.65463,-15.61617 28.25288,6.29983 14.71026,45.78926 6.64173,100.09157 -28.73947,134.41802 -14.40191,12.67978 -31.71882,31.36424 -49.74966,33.1435 -9.15122,-5.07316 -20.40005,-3.04916 -30.09042,-6.33551 m -55.42462,21.33687 2.21875,-1.01057 z m 5.91667,-2.69485 4.3036,-2.71809 z m 10.08333,-105.58355 c -1.35848,-3.96108 -2.89304,2.03982 0,0 z m 515.5,133.93345 c -40.7743,-7.12001 -84.23835,-4.98304 -122.56191,-22.21516 -25.38532,-13.45562 -50.678,-27.65839 -74.08642,-44.24668 -19.17271,-17.22465 -33.3574,-45.57554 -62.21942,-46.97653 -18.23614,3.56863 -9.89296,-31.02039 5.59214,-12.37486 54.22425,25.36286 100.29552,64.64208 153.26735,92.23407 0.084,-12.45813 -33.99781,-31.73065 -25.92082,-37.42897 27.93996,20.95658 59.28591,36.5096 92.22513,47.9888 13.22364,5.70789 40.12941,16.28586 42.32685,23.88302 -2.90101,-0.0285 -5.72972,-0.7415 -8.6229,-0.86369 z m -620.6875,-5.81834 c 5.83657,-1.70874 -1.21985,2.11463 0,0 z m 75,-13.34983 c 5.83657,-1.70874 -1.21985,2.11463 0,0 z m 548.1875,-75.01145 c -35.48466,-20.97711 -73.64819,-39.38683 -114.56529,-46.27506 -24.20712,6.12794 -43.5258,29.44043 -71.33839,21.51615 -13.65084,2.66685 -54.06477,-16.99203 -20.57357,-16.59384 15.38653,-2.77536 53.58144,6.81215 51.3285,-14.80041 -9.85437,-11.4653 -45.83037,-16.6744 -41.17846,-30.61704 32.1027,-1.77853 64.4205,3.99299 95.95981,9.5417 20.2898,4.27521 38.57796,24.26121 55.52951,7.66094 21.44711,10.87724 33.85897,34.33566 51.87444,49.84961 6.89182,8.2962 9.20395,24.37489 -7.03655,19.71795 z"
         id="path146762"
         sodipodi:nodetypes="csssssscccsscssccccccccssssssssssssssscssccssss"
         inkscape:label="root3" />
      <path
         id="path146765"
         style="display:inline;mix-blend-mode:normal;fill:#142c38;fill-opacity:1;stroke:#000000;stroke-width:3;stroke-linecap:round;stroke-linejoin:round;stroke-miterlimit:4;stroke-dasharray:none;stroke-opacity:1;paint-order:normal"
         inkscape:label="blue"
         d="m 335.39844,0.02539063 c -3.71371,0.12266714 -7.38071,0.70202188 -10.88867,1.79101557 -29.45355,7.893512 -36.2914,45.7506138 -21.64649,68.4394528 -16.25809,21.19913 -33.12904,47.493791 -52.18945,66.996091 -4.78779,4.8988 -34.91259,-17.61608 -36.36328,-30.66992 -1.70441,-15.336824 -1.94333,-10.799465 -1.19922,-16.423827 -0.20899,-34.881909 -48.08865,-52.131091 -72.42383,-28.738281 -26.42394,18.53775 -18.33086,67.948308 15.95117,70.943358 22.8933,66.18133 46.19546,159.03222 61.85742,199.08203 24.16267,5.02763 51.65865,0.89175 76.43555,2.33594 -0.45816,33.69479 0.14408,67.40165 -0.55273,101.0918 -0.31398,15.18075 -11.02196,18.22943 -22.34571,25.33984 -54.37519,33.28134 -72.87427,116.97501 -29.01367,165.98633 17.11313,20.36251 37.88826,34.61406 64.84961,41.05469 15.19075,-60.42016 0.22951,-0.0158 15.24219,-60.48243 -14.19106,-5.33965 -1.16841,-0.5669 -21.54883,-9.00586 -42.13967,-37.80292 -8.24946,-100.66931 46.03711,-97.61523 73.1398,9.72122 76.24179,90.8768 16.35937,106.27734 15.45723,60.74277 10.34056,38.29799 15.38086,60.71875 36.75504,-8.9464 69.69892,-35.35688 85.14844,-69.88671 27.40915,-55.68194 0.76426,-128.86018 -65.88672,-149.14063 0.0472,-26.99257 -0.13086,-0.92016 0.082,-115.64648 64.99588,-0.16752 -23.38797,-0.0652 65.01758,-0.15625 14.43366,-66.02606 29.14451,-139.73202 45.40821,-203.4668 10.02379,-9.72858 41.0547,-7.93463 44.41406,-33.59961 2.66601,-20.36796 -5.51779,-35.449261 -17.98633,-43.681641 -12.46854,-8.23238 -29.22199,-9.617243 -43.69141,-2.589843 -15.28043,7.42128 -24.3956,18.524241 -26.51172,34.425781 3.51607,24.749523 -21.33839,61.377773 -42.47851,42.441403 C 373.39173,78.513992 377.48381,72.922078 382.0918,47.136719 389.69912,20.727565 361.39438,-0.83327938 335.39844,0.02539063 Z m 3.58594,27.02734337 c 14.01637,0.546454 27.80362,10.344359 13.82226,27.824219 -9.61727,0.8712 -19.41482,0.924812 -29.01758,-0.142578 C 310.72369,35.21068 324.968,26.506281 338.98438,27.052734 Z m 170.50781,44.8125 c 12.19347,0.542387 24.47054,9.473713 16.73047,26.007813 -7.89218,4.825833 -21.80957,11.519033 -32.95704,-1.685547 -8.0774,-17.019795 4.03309,-24.864652 16.22657,-24.322266 z m -336.83008,2.576172 c 4.14781,0.487849 8.27966,2.529459 11.875,6.751953 12.06998,17.91737 -2.26068,28.311291 -18.35938,24.761721 l -6.01757,-1.32617 c -23.74931,-5.236444 -5.47191,-32.301516 12.50195,-30.187504 z m 169.5293,15.228516 c 19.31031,-0.118756 39.881,22.279708 80.92773,74.044918 22.39719,2.22407 43.07371,-43.14937 64.95703,-34.02539 -12.55186,52.27909 -27.41072,115.97051 -38.23047,177.14258 -71.37468,0.23673 -142.74836,0.4742 -214.12304,0.71094 -12.03035,-58.58415 -29.25225,-115.87945 -47.76758,-172.69141 11.53371,-17.27142 43.27839,31.94987 65.46484,32.01367 46.61987,-48.00467 66.88647,-77.060718 88.77149,-77.195308 z M 317.41797,332.5 h 58.02734 c -0.0332,37.74436 -0.7115,73.7833 0.57617,111.50586 0.81547,23.88926 20.38165,26.61957 36.65625,35.97461 3.50152,2.01276 6.90177,4.22751 9.87305,7.14258 20.17993,19.79809 30.16115,49.25624 27.19727,76.77343 -1.44272,13.3944 -5.90609,26.33494 -13.84375,37.4668 -9.33138,14.16605 -45.11847,54.09616 -45.97071,16.88867 21.85221,-17.81925 41.1488,-48.52269 31.29102,-79.92383 -11.76029,-47.38778 -75.63822,-72.18413 -118.02344,-46.54882 -36.7748,20.99464 -54.79816,70.02886 -24.92969,108.39648 26.66158,21.89786 26.62933,8.12804 19.54102,33.46484 -2.37809,8.50037 -10.82818,-1.12076 -18.58594,-4.09374 -44.23771,-26.27968 -65.25772,-105.80857 3.31641,-150.35157 19.81643,-12.87196 32.17482,-9.59481 32.59765,-34.24023 0.71764,-41.82761 2.08693,-70.62175 2.27735,-112.45508 z"
         transform="translate(144.24447,-105.55521)"
         sodipodi:nodetypes="sccsscccccscccccccccccccssscccssccssccsscccssccccccsccsssscccccscssc" />
    </g>
  </g>
  <g
     inkscape:groupmode="layer"
     id="layer2"
     inkscape:label="Calque 2"
     transform="translate(-0.23214525,0.39677375)" />
</svg>
